<svg width="993" height="800" viewBox="0 0 993 800" fill="none" xmlns="http://www.w3.org/2000/svg">
<g clip-path="url(#clip0)">
<path opacity="0.1" fill-rule="evenodd" clip-rule="evenodd" d="M604.371 9.50524C506.918 9.34064 464.274 128.595 385.812 186.346C298.05 250.942 148.685 255.891 125.126 362.245C101.389 469.401 206.301 559.846 286.45 634.891C354.641 698.74 439.713 738.26 532.969 744.117C622.818 749.761 711.336 723.278 780.698 665.935C849.873 608.746 894.003 527.121 903.382 437.889C912.837 347.944 882.809 261.28 831.03 187.098C773.93 105.294 704.169 9.67381 604.371 9.50524Z" fill="#18759D"/>
<path d="M283.42 553.07C283.42 553.07 237.2 486.38 245.05 423.44C248.506 397.062 243.313 370.275 230.25 347.1C223.964 336.144 216.687 325.787 208.51 316.16" stroke="#535461" stroke-width="2" stroke-miterlimit="10"/>
<path d="M213.22 276.47C216.22 285.52 208.51 317.21 208.51 317.21C208.51 317.21 183.42 296.38 180.42 287.32C178.981 282.97 179.329 278.228 181.387 274.135C183.446 270.042 187.045 266.934 191.395 265.495C195.745 264.056 200.488 264.404 204.58 266.462C208.673 268.521 211.781 272.12 213.22 276.47V276.47Z" fill="#18759D"/>
<path d="M256.92 317.66C254.52 326.89 230.83 349.3 230.83 349.3C230.83 349.3 221.09 318.18 223.5 308.95C224.045 306.727 225.027 304.634 226.388 302.794C227.749 300.953 229.462 299.402 231.428 298.23C233.394 297.057 235.574 296.287 237.84 295.965C240.106 295.642 242.414 295.774 244.629 296.351C246.844 296.928 248.922 297.94 250.742 299.328C252.563 300.715 254.089 302.451 255.233 304.434C256.377 306.416 257.115 308.607 257.404 310.877C257.694 313.148 257.529 315.454 256.92 317.66V317.66Z" fill="#18759D"/>
<path d="M284.11 403.77C277.37 410.53 245.61 417.91 245.61 417.91C245.61 417.91 252.92 386.13 259.61 379.38C262.844 376.136 267.235 374.31 271.815 374.304C276.396 374.297 280.791 376.111 284.035 379.345C287.279 382.579 289.105 386.97 289.111 391.55C289.118 396.131 287.304 400.526 284.07 403.77H284.11Z" fill="#18759D"/>
<path d="M290 473.6C284.5 481.39 254.44 494.04 254.44 494.04C254.44 494.04 256.27 461.48 261.77 453.69C264.41 449.946 268.429 447.405 272.943 446.625C277.457 445.845 282.096 446.89 285.84 449.53C289.584 452.17 292.125 456.189 292.905 460.703C293.685 465.217 292.64 469.856 290 473.6V473.6Z" fill="#18759D"/>
<path d="M197 362.45C205.58 366.61 238 363.13 238 363.13C238 363.13 220.64 335.53 212 331.36C207.903 329.555 203.265 329.412 199.064 330.96C194.864 332.508 191.428 335.628 189.483 339.66C187.538 343.692 187.234 348.322 188.636 352.574C190.039 356.825 193.037 360.366 197 362.45V362.45Z" fill="#18759D"/>
<path d="M204.91 443.98C214.35 445.38 244.25 432.36 244.25 432.36C244.25 432.36 219.42 411.21 210 409.81C207.756 409.476 205.469 409.588 203.269 410.139C201.068 410.689 198.997 411.667 197.175 413.018C193.495 415.746 191.049 419.824 190.375 424.355C189.701 428.886 190.855 433.499 193.583 437.18C196.311 440.86 200.389 443.306 204.92 443.98H204.91Z" fill="#18759D"/>
<path d="M223.49 522.16C232.56 525.16 264.23 517.36 264.23 517.36C264.23 517.36 243.33 492.36 234.23 489.36C232.075 488.652 229.802 488.376 227.54 488.546C225.278 488.717 223.072 489.332 221.048 490.355C219.023 491.378 217.22 492.79 215.742 494.51C214.263 496.231 213.138 498.225 212.43 500.38C211.722 502.535 211.446 504.808 211.616 507.07C211.787 509.332 212.402 511.538 213.425 513.562C214.448 515.587 215.86 517.39 217.58 518.868C219.301 520.347 221.295 521.472 223.45 522.18L223.49 522.16Z" fill="#18759D"/>
<path opacity="0.25" d="M213.22 276.47C216.22 285.52 208.51 317.21 208.51 317.21C208.51 317.21 183.42 296.38 180.42 287.32C178.981 282.97 179.329 278.228 181.387 274.135C183.446 270.042 187.045 266.934 191.395 265.495C195.745 264.056 200.488 264.404 204.58 266.462C208.673 268.521 211.781 272.12 213.22 276.47Z" fill="black"/>
<path opacity="0.25" d="M256.92 317.66C254.52 326.89 230.83 349.3 230.83 349.3C230.83 349.3 221.09 318.18 223.5 308.95C224.045 306.727 225.027 304.634 226.388 302.794C227.749 300.953 229.462 299.402 231.428 298.23C233.394 297.057 235.574 296.287 237.84 295.965C240.106 295.642 242.414 295.774 244.629 296.351C246.844 296.928 248.922 297.94 250.742 299.328C252.563 300.715 254.089 302.451 255.233 304.434C256.377 306.416 257.115 308.607 257.404 310.877C257.694 313.148 257.529 315.454 256.92 317.66Z" fill="black"/>
<path opacity="0.25" d="M284.11 403.77C277.37 410.53 245.61 417.91 245.61 417.91C245.61 417.91 252.92 386.13 259.61 379.38C262.844 376.136 267.235 374.31 271.815 374.304C276.396 374.297 280.791 376.111 284.035 379.345C287.279 382.579 289.105 386.97 289.111 391.55C289.118 396.131 287.304 400.526 284.07 403.77H284.11Z" fill="black"/>
<path opacity="0.25" d="M290 473.6C284.5 481.39 254.44 494.04 254.44 494.04C254.44 494.04 256.27 461.48 261.77 453.69C264.41 449.946 268.429 447.405 272.943 446.625C277.457 445.845 282.096 446.89 285.84 449.53C289.584 452.17 292.125 456.189 292.905 460.703C293.685 465.217 292.64 469.856 290 473.6Z" fill="black"/>
<path opacity="0.25" d="M197 362.45C205.58 366.61 238 363.13 238 363.13C238 363.13 220.64 335.53 212 331.36C207.903 329.555 203.265 329.412 199.064 330.96C194.864 332.508 191.428 335.628 189.483 339.66C187.538 343.692 187.234 348.322 188.636 352.574C190.039 356.825 193.037 360.366 197 362.45Z" fill="black"/>
<path opacity="0.25" d="M204.91 443.98C214.35 445.38 244.25 432.36 244.25 432.36C244.25 432.36 219.42 411.21 210 409.81C207.756 409.476 205.469 409.588 203.269 410.139C201.068 410.689 198.997 411.667 197.175 413.018C193.495 415.746 191.049 419.824 190.375 424.355C189.701 428.886 190.855 433.499 193.583 437.18C196.311 440.86 200.389 443.306 204.92 443.98H204.91Z" fill="black"/>
<path opacity="0.25" d="M223.49 522.16C232.56 525.16 264.23 517.36 264.23 517.36C264.23 517.36 243.33 492.36 234.23 489.36C232.075 488.652 229.802 488.376 227.54 488.546C225.278 488.717 223.072 489.332 221.048 490.355C219.023 491.378 217.22 492.79 215.742 494.51C214.263 496.231 213.138 498.225 212.43 500.38C211.722 502.535 211.446 504.808 211.616 507.07C211.787 509.332 212.402 511.538 213.425 513.562C214.448 515.587 215.86 517.39 217.58 518.868C219.301 520.347 221.295 521.472 223.45 522.18L223.49 522.16Z" fill="black"/>
<path d="M283.16 550.39C283.16 550.39 213.88 508.15 195.54 447.39C188.008 421.879 172.408 399.496 151.08 383.6C140.894 376.133 130.045 369.616 118.67 364.13" stroke="#535461" stroke-width="2" stroke-miterlimit="10"/>
<path d="M106.89 325.97C113.3 333.03 119.09 365.12 119.09 365.12C119.09 365.12 87.72 356.24 81.31 349.18C78.2322 345.788 76.6279 341.312 76.8501 336.737C77.0724 332.162 79.1029 327.863 82.495 324.785C85.8871 321.707 90.363 320.103 94.9379 320.325C99.5129 320.547 103.812 322.578 106.89 325.97V325.97Z" fill="#18759D"/>
<path d="M163.54 345.91C165.08 355.33 152.54 385.42 152.54 385.42C152.54 385.42 131 360.91 129.45 351.49C128.71 346.969 129.796 342.34 132.47 338.62C135.143 334.9 139.184 332.395 143.705 331.655C148.226 330.915 152.855 332.001 156.575 334.675C160.295 337.348 162.8 341.389 163.54 345.91V345.91Z" fill="#18759D"/>
<path d="M223.29 413.6C219.86 422.51 193.82 442.13 193.82 442.13C193.82 442.13 187.62 410.13 191.04 401.21C192.683 396.933 195.958 393.485 200.143 391.622C204.329 389.76 209.083 389.637 213.36 391.28C217.637 392.923 221.085 396.198 222.948 400.383C224.81 404.569 224.933 409.323 223.29 413.6V413.6Z" fill="#18759D"/>
<path d="M257 475.03C255.13 484.39 232.77 508.13 232.77 508.13C232.77 508.13 221.25 477.62 223.12 468.27C223.564 466.045 224.442 463.93 225.703 462.045C226.964 460.159 228.585 458.541 230.472 457.282C232.359 456.022 234.475 455.147 236.7 454.706C238.925 454.265 241.215 454.266 243.44 454.71C245.665 455.154 247.78 456.032 249.665 457.293C251.551 458.554 253.169 460.175 254.428 462.062C255.688 463.949 256.563 466.065 257.004 468.29C257.445 470.515 257.444 472.805 257 475.03V475.03Z" fill="#18759D"/>
<path d="M126.88 411.15C136.42 411.48 164.65 395.15 164.65 395.15C164.65 395.15 137.6 376.95 128.06 376.6C125.793 376.523 123.534 376.892 121.41 377.688C119.286 378.484 117.34 379.69 115.683 381.238C114.025 382.786 112.689 384.645 111.75 386.71C110.811 388.774 110.287 391.003 110.21 393.27C110.133 395.537 110.502 397.796 111.298 399.92C112.094 402.044 113.3 403.99 114.848 405.647C116.396 407.305 118.255 408.641 120.32 409.58C122.384 410.519 124.613 411.043 126.88 411.12V411.15Z" fill="#18759D"/>
<path d="M167.17 482.47C176.37 479.93 198.43 455.91 198.43 455.91C198.43 455.91 167.16 446.6 158 449.18C155.792 449.764 153.721 450.78 151.909 452.17C150.096 453.559 148.577 455.294 147.439 457.275C146.302 459.256 145.568 461.442 145.281 463.708C144.995 465.974 145.16 468.275 145.769 470.476C146.377 472.678 147.416 474.737 148.826 476.534C150.236 478.331 151.988 479.831 153.981 480.947C155.974 482.062 158.169 482.771 160.438 483.033C162.707 483.294 165.005 483.103 167.2 482.47H167.17Z" fill="#18759D"/>
<path d="M215.84 546.42C225.34 545.42 251.14 525.52 251.14 525.52C251.14 525.52 221.89 511.1 212.4 512.05C210.143 512.276 207.953 512.944 205.955 514.016C203.956 515.089 202.188 516.544 200.752 518.3C197.852 521.845 196.479 526.397 196.935 530.955C197.161 533.212 197.829 535.402 198.901 537.4C199.974 539.399 201.429 541.167 203.185 542.603C206.73 545.503 211.282 546.876 215.84 546.42V546.42Z" fill="#18759D"/>
<path opacity="0.1" d="M565.71 744.7C664.569 744.7 744.71 739.945 744.71 734.08C744.71 728.215 664.569 723.46 565.71 723.46C466.851 723.46 386.71 728.215 386.71 734.08C386.71 739.945 466.851 744.7 565.71 744.7Z" fill="#18759D"/>
<path opacity="0.1" d="M746.87 789.78C772.75 789.78 793.73 785.961 793.73 781.25C793.73 776.539 772.75 772.72 746.87 772.72C720.99 772.72 700.01 776.539 700.01 781.25C700.01 785.961 720.99 789.78 746.87 789.78Z" fill="#18759D"/>
<path d="M648 715.41V721.82H458.38V716.6C469.946 712.315 479.98 704.694 487.213 694.703C494.446 684.712 498.551 672.8 499.011 660.474C499.47 648.149 496.262 635.964 489.793 625.462C483.324 614.96 473.885 606.614 462.67 601.48H646.75C635.795 606.507 626.531 614.601 620.079 624.783C613.627 634.965 610.264 646.798 610.396 658.851C610.529 670.904 614.151 682.66 620.824 692.698C627.498 702.735 636.937 710.624 648 715.41Z" fill="#C8CAD7"/>
<path opacity="0.1" d="M646.75 601.49C638.288 605.373 630.801 611.1 624.838 618.252C618.876 625.403 614.588 633.797 612.29 642.82H497.13C494.832 633.797 490.544 625.403 484.582 618.252C478.619 611.1 471.132 605.373 462.67 601.49H646.75Z" fill="black"/>
<path d="M241.21 568.82V604.82C241.21 624.7 255.76 640.82 273.71 640.82H831.71C849.66 640.82 864.21 624.7 864.21 604.82V568.82H241.21Z" fill="#C8CAD7"/>
<path opacity="0.1" d="M648 715.41V721.82H458.38V716.6C463.578 714.67 468.495 712.053 473 708.82H636.4C640.02 711.424 643.909 713.634 648 715.41Z" fill="black"/>
<path d="M701.21 710.82H405.21C399.963 710.82 395.71 715.073 395.71 720.32C395.71 725.567 399.963 729.82 405.21 729.82H701.21C706.457 729.82 710.71 725.567 710.71 720.32C710.71 715.073 706.457 710.82 701.21 710.82Z" fill="#C8CAD7"/>
<path d="M864.21 174.32C864.21 165.7 860.786 157.434 854.691 151.339C848.596 145.244 840.329 141.82 831.71 141.82H273.71C265.09 141.82 256.824 145.244 250.729 151.339C244.634 157.434 241.21 165.7 241.21 174.32V575.82H864.21V174.32Z" fill="#474157"/>
<path d="M831.21 172.82H274.21C265.373 172.82 258.21 179.983 258.21 188.82V533.82C258.21 542.657 265.373 549.82 274.21 549.82H831.21C840.047 549.82 847.21 542.657 847.21 533.82V188.82C847.21 179.983 840.047 172.82 831.21 172.82Z" fill="#EDEDF4"/>
<path d="M552.71 164.82C556.852 164.82 560.21 161.462 560.21 157.32C560.21 153.178 556.852 149.82 552.71 149.82C548.568 149.82 545.21 153.178 545.21 157.32C545.21 161.462 548.568 164.82 552.71 164.82Z" fill="white"/>
<path d="M552.71 624.82C562.927 624.82 571.21 616.537 571.21 606.32C571.21 596.103 562.927 587.82 552.71 587.82C542.493 587.82 534.21 596.103 534.21 606.32C534.21 616.537 542.493 624.82 552.71 624.82Z" fill="white"/>
<path d="M847.21 188.82H258.21C258.21 184.577 259.896 180.507 262.896 177.506C265.897 174.506 269.967 172.82 274.21 172.82H831.21C835.453 172.82 839.523 174.506 842.524 177.506C845.524 180.507 847.21 184.577 847.21 188.82Z" fill="#C8CAD7"/>
<path d="M274.21 184.82C276.419 184.82 278.21 183.029 278.21 180.82C278.21 178.611 276.419 176.82 274.21 176.82C272.001 176.82 270.21 178.611 270.21 180.82C270.21 183.029 272.001 184.82 274.21 184.82Z" fill="#EDEDF4"/>
<path d="M286.21 184.82C288.419 184.82 290.21 183.029 290.21 180.82C290.21 178.611 288.419 176.82 286.21 176.82C284.001 176.82 282.21 178.611 282.21 180.82C282.21 183.029 284.001 184.82 286.21 184.82Z" fill="#EDEDF4"/>
<path d="M298.21 184.82C300.419 184.82 302.21 183.029 302.21 180.82C302.21 178.611 300.419 176.82 298.21 176.82C296.001 176.82 294.21 178.611 294.21 180.82C294.21 183.029 296.001 184.82 298.21 184.82Z" fill="#EDEDF4"/>
<path d="M431.21 202.32H280.21V211.32H431.21V202.32Z" fill="#18759D"/>
<path d="M431.21 465.32H280.21V474.32H431.21V465.32Z" fill="#18759D"/>
<path opacity="0.2" d="M560.21 485.32H280.21V494.32H560.21V485.32Z" fill="#18759D"/>
<path opacity="0.2" d="M560.21 498.33H280.21V507.33H560.21V498.33Z" fill="#18759D"/>
<path opacity="0.2" d="M560.21 511.33H280.21V520.33H560.21V511.33Z" fill="#18759D"/>
<path opacity="0.2" d="M558.21 226.32H280.21V377.32H558.21V226.32Z" fill="#18759D"/>
<path opacity="0.2" d="M348.21 391.32H283.21V451.32H348.21V391.32Z" fill="#18759D"/>
<path opacity="0.2" d="M558.21 391.32H493.21V451.32H558.21V391.32Z" fill="#18759D"/>
<path opacity="0.2" d="M451.71 391.32H386.71V451.32H451.71V391.32Z" fill="#18759D"/>
<path opacity="0.2" d="M808.88 270.24H617.55V411.07H808.88V270.24Z" fill="#18759D"/>
<path d="M788.71 298.82H637.71V307.82H788.71V298.82Z" fill="#EDEDF4"/>
<path d="M788.71 317.49H637.71V326.49H788.71V317.49Z" fill="#EDEDF4"/>
<path d="M788.71 336.16H637.71V345.16H788.71V336.16Z" fill="#EDEDF4"/>
<path d="M788.71 354.82H637.71V363.82H788.71V354.82Z" fill="#EDEDF4"/>
<path d="M788.71 373.49H637.71V382.49H788.71V373.49Z" fill="#EDEDF4"/>
<path d="M785.55 427.07H640.88V452.4H785.55V427.07Z" fill="#18759D"/>
<path d="M730.16 511.47H633.15V528.46H730.16V511.47Z" fill="#18759D"/>
<path opacity="0.1" d="M258.43 778.27C274.225 778.27 287.03 776.972 287.03 775.37C287.03 773.768 274.225 772.47 258.43 772.47C242.635 772.47 229.83 773.768 229.83 775.37C229.83 776.972 242.635 778.27 258.43 778.27Z" fill="#18759D"/>
<path opacity="0.1" d="M843.87 735.64C853.336 735.64 861.01 734.861 861.01 733.9C861.01 732.939 853.336 732.16 843.87 732.16C834.404 732.16 826.73 732.939 826.73 733.9C826.73 734.861 834.404 735.64 843.87 735.64Z" fill="#18759D"/>
<path d="M268.42 727.6C268.42 727.6 231.12 746.87 250.42 769.6C250.42 769.6 252.23 774.6 257.48 774.18C257.48 774.18 256.43 772.27 260.48 770.75C261.892 770.194 263.234 769.476 264.48 768.61C266.175 767.438 267.442 765.746 268.09 763.79C268.09 763.79 275.72 753.58 269.81 734.69C269.81 734.69 270.57 729.35 269.9 728.49L265.32 734.6C265.32 734.6 270.01 737.74 270.54 742.36C270.54 742.36 265.66 734.61 264.6 735.49C264.39 735.67 262.35 738.89 262.35 738.89C262.35 738.89 270.47 744.4 271.08 751.55C271.08 751.55 266.5 741.55 261.56 740.1L258.77 745.15C258.77 745.15 267.65 750.55 268.65 758.67C268.65 758.67 263.5 748.37 258.24 746.29L256.16 751.62C256.16 751.62 264.71 757.06 265.5 763.82C265.5 763.82 258.35 752.52 255.77 752.82C255.77 752.82 254.16 757.82 254.37 759.37C254.37 759.37 260.42 763.37 260.53 767.37C260.53 767.37 254.95 760.32 254.09 760.79C254.09 760.79 253.73 767.87 255.45 771.56C255.45 771.56 252.51 766.3 252.98 760.79C251.242 762.333 249.997 764.354 249.4 766.6C249.4 766.6 247.79 762.7 253.09 759.12C253.09 759.12 253.59 753.61 254.2 752.93C254.2 752.93 248.47 755.72 246.04 759.16C246.04 759.16 246.93 754.04 254.7 751.5L256.7 746.1C256.7 746.1 248.94 749.39 246.55 752.29C246.55 752.29 248.27 747.21 257.31 744.78L259.99 739.78C259.99 739.78 253.09 742.1 249.73 744.78C249.73 744.78 252.34 740.42 260.82 738.41L263 735.3C263 735.3 258 737.09 256.6 737.73C255.2 738.37 254.92 738.05 254.92 738.05C257.484 735.884 260.6 734.475 263.92 733.98C263.92 733.98 268.77 727.89 268.42 727.6Z" fill="#18759D"/>
<path opacity="0.1" d="M169.3 733.41C181.406 733.41 191.22 732.416 191.22 731.19C191.22 729.964 181.406 728.97 169.3 728.97C157.194 728.97 147.38 729.964 147.38 731.19C147.38 732.416 157.194 733.41 169.3 733.41Z" fill="#18759D"/>
<path d="M177 694.6C177 694.6 148.42 709.36 163.18 726.76C163.596 727.841 164.344 728.763 165.315 729.393C166.287 730.024 167.433 730.33 168.59 730.27C168.59 730.27 167.79 728.81 170.86 727.64C171.945 727.211 172.978 726.661 173.94 726C175.239 725.099 176.211 723.8 176.71 722.3V722.3C176.71 722.3 182.55 714.48 178.02 700.01C178.02 700.01 178.61 695.91 178.09 695.25L174.62 700.02C174.62 700.02 178.21 702.43 178.62 705.96C178.62 705.96 174.88 700.03 174.07 700.7C173.91 700.84 172.35 703.31 172.35 703.31C172.35 703.31 178.57 707.53 179.04 713.01C179.04 713.01 175.53 705.33 171.74 704.24L169.61 708.1C169.61 708.1 176.4 712.24 177.17 718.46C177.17 718.46 173.22 710.57 169.17 708.98L167.58 713.06C167.58 713.06 174.14 717.23 174.74 722.41C174.74 722.41 169.26 713.75 167.28 714.02C167.28 714.02 166.05 717.86 166.21 719.02C166.21 719.02 170.85 722.12 170.93 725.16C170.93 725.16 166.65 719.76 165.99 720.16C165.99 720.16 165.72 725.58 167.04 728.41C165.7 725.872 165.045 723.028 165.14 720.16C163.819 721.333 162.867 722.866 162.4 724.57C162.4 724.57 161.17 721.57 165.23 718.84C165.23 718.84 165.61 714.62 166.08 714.1C166.08 714.1 161.69 716.24 159.83 718.87C159.83 718.87 160.51 714.95 166.46 713L167.97 708.86C167.97 708.86 162.02 711.38 160.18 713.61C160.18 713.61 161.5 709.71 168.43 707.85L170.49 704.04C170.49 704.04 165.2 705.82 162.62 707.85C162.62 707.85 164.62 704.5 171.12 702.97L172.79 700.58C172.79 700.58 168.96 701.95 167.89 702.45C166.82 702.95 166.6 702.69 166.6 702.69C168.561 701.034 170.942 699.954 173.48 699.57C173.48 699.57 177.22 694.8 177 694.6Z" fill="#18759D"/>
<path d="M851.74 705.01C851.74 705.01 829.39 716.6 840.93 730.16C841.256 731.005 841.84 731.724 842.6 732.217C843.36 732.709 844.256 732.948 845.16 732.9C845.16 732.9 844.53 731.76 846.94 730.84C847.791 730.51 848.6 730.08 849.35 729.56C850.363 728.855 851.121 727.841 851.51 726.67V726.67C851.51 726.67 856.08 720.55 852.51 709.24C852.51 709.24 852.96 706.04 852.56 705.52L849.85 709.24C849.85 709.24 852.66 711.13 852.98 713.9C852.98 713.9 850.05 709.25 849.42 709.78C849.29 709.89 848.07 711.78 848.07 711.78C848.07 711.78 852.94 715.08 853.3 719.36C853.3 719.36 850.56 713.36 847.6 712.51L846 715.6C846 715.6 851.31 718.83 851.91 723.7C851.91 723.7 848.83 717.53 845.67 716.28L844.43 719.48C844.43 719.48 849.55 722.73 850.03 726.79C850.03 726.79 845.74 720.01 844.2 720.23C843.76 721.497 843.478 722.814 843.36 724.15C843.36 724.15 846.98 726.57 847.05 728.95C847.05 728.95 843.7 724.73 843.19 725.01C843.19 725.01 842.97 729.25 844 731.46C842.959 729.474 842.449 727.252 842.52 725.01C841.487 725.928 840.743 727.127 840.38 728.46C840.38 728.46 839.38 726.12 842.59 723.98C842.59 723.98 842.89 720.68 843.25 720.27C843.25 720.27 839.82 721.94 838.37 724C838.37 724 838.9 720.93 843.55 719.41L844.73 716.18C844.73 716.18 840.08 718.18 838.64 719.88C838.64 719.88 839.64 716.88 845.1 715.38L846.7 712.38C844.53 713.112 842.463 714.12 840.55 715.38C840.55 715.38 842.12 712.77 847.2 711.57L848.5 709.7C848.5 709.7 845.5 710.78 844.67 711.16C843.84 711.54 843.67 711.35 843.67 711.35C845.202 710.053 847.065 709.209 849.05 708.91C849.05 708.91 851.94 705.21 851.74 705.01Z" fill="#18759D"/>
<path opacity="0.1" d="M936.04 799.2C959.098 799.2 977.79 797.637 977.79 795.71C977.79 793.783 959.098 792.22 936.04 792.22C912.982 792.22 894.29 793.783 894.29 795.71C894.29 797.637 912.982 799.2 936.04 799.2Z" fill="#18759D"/>
<path d="M969.47 685.6C968.513 686.92 967.745 688.367 967.19 689.9C967.05 690.27 966.92 690.7 966.78 691.11C966.523 690.991 966.255 690.898 965.98 690.83C964.818 690.537 963.615 690.435 962.42 690.53C962.42 690.06 962.47 689.58 962.49 689.06C962.63 683.79 962.01 676.44 956.98 679.56C952.16 682.56 955.6 687.56 958.71 690.76C958.98 691.04 959.25 691.3 959.51 691.55C956.68 693.55 956.13 698.28 955.66 703.19C955.19 708.1 951.02 713.47 948.26 716.52L947.47 717.37C946.357 716.482 945.069 715.838 943.691 715.481C942.312 715.124 940.874 715.063 939.47 715.3C939.35 714.87 939.23 714.42 939.09 713.95C936.86 705.86 932.21 691.85 926.27 688.78C926.53 688.47 926.79 688.14 927.06 687.78C929.58 684.48 932.41 679.59 928.22 678.34C924.03 677.09 923.66 682.58 923.89 686.7C923.89 687.22 923.93 687.71 924.01 688.17C923.171 688.208 922.348 688.417 921.593 688.785C920.838 689.154 920.167 689.672 919.62 690.31L918.98 689.54C915.58 685.54 909.34 679.17 907.46 683.98C905.7 688.46 911.18 694.28 915.04 697.65L915.29 697.86C912.69 708.37 924 716.94 930.09 720.69L930.88 721.17C922.48 731.07 917.3 749.63 917.3 749.63L940.82 753.83C940.82 753.83 956.41 740.37 954.42 727.73H954.58C970.16 724.61 973.71 707.99 971.28 698.12L971.55 698.01C974.39 696.849 976.879 694.967 978.77 692.55C983.09 686.47 974 679.6 969.47 685.6Z" fill="#18759D"/>
<path opacity="0.1" d="M969.47 685.6C968.513 686.92 967.745 688.367 967.19 689.9C967.05 690.27 966.92 690.7 966.78 691.11C966.523 690.991 966.255 690.898 965.98 690.83C964.818 690.537 963.615 690.435 962.42 690.53C962.42 690.06 962.47 689.58 962.49 689.06C962.63 683.79 962.01 676.44 956.98 679.56C952.16 682.56 955.6 687.56 958.71 690.76C958.98 691.04 959.25 691.3 959.51 691.55C956.68 693.55 956.13 698.28 955.66 703.19C955.19 708.1 951.02 713.47 948.26 716.52L947.47 717.37C946.357 716.482 945.069 715.838 943.691 715.481C942.312 715.124 940.874 715.063 939.47 715.3C939.35 714.87 939.23 714.42 939.09 713.95C936.86 705.86 932.21 691.85 926.27 688.78C926.53 688.47 926.79 688.14 927.06 687.78C929.58 684.48 932.41 679.59 928.22 678.34C924.03 677.09 923.66 682.58 923.89 686.7C923.89 687.22 923.93 687.71 924.01 688.17C923.171 688.208 922.348 688.417 921.593 688.785C920.838 689.154 920.167 689.672 919.62 690.31L918.98 689.54C915.58 685.54 909.34 679.17 907.46 683.98C905.7 688.46 911.18 694.28 915.04 697.65L915.29 697.86C912.69 708.37 924 716.94 930.09 720.69L930.88 721.17C922.48 731.07 917.3 749.63 917.3 749.63L940.82 753.83C940.82 753.83 956.41 740.37 954.42 727.73H954.58C970.16 724.61 973.71 707.99 971.28 698.12L971.55 698.01C974.39 696.849 976.879 694.967 978.77 692.55C983.09 686.47 974 679.6 969.47 685.6Z" fill="black"/>
<path d="M922.65 692.36L919.9 700.36C919.9 700.36 918.37 699.28 916.44 697.58C912.59 694.21 907.1 688.39 908.86 683.91C910.74 679.1 916.98 685.45 920.38 689.47C921.74 691.12 922.65 692.36 922.65 692.36Z" fill="#18759D"/>
<path d="M928.46 687.76C927.621 688.858 926.727 689.913 925.78 690.92C925.539 689.517 925.376 688.101 925.29 686.68C925.06 682.56 925.49 677.09 929.62 678.32C933.75 679.55 931 684.46 928.46 687.76Z" fill="#18759D"/>
<path d="M963.93 689.03C963.84 691.68 963.58 693.8 963.58 693.8C962.37 692.853 961.225 691.828 960.15 690.73C957.04 687.5 953.6 682.52 958.42 679.53C963.45 676.41 964.07 683.76 963.93 689.03Z" fill="#18759D"/>
<path d="M980.17 692.5C978.28 694.914 975.796 696.795 972.96 697.96C972.171 698.299 971.363 698.593 970.54 698.84L967.3 694.29C967.637 692.787 968.082 691.31 968.63 689.87C969.185 688.337 969.953 686.89 970.91 685.57C975.39 679.6 984.53 686.47 980.17 692.5Z" fill="#18759D"/>
<path opacity="0.1" d="M920.38 689.52C921.74 691.12 922.65 692.36 922.65 692.36L919.9 700.36C919.9 700.36 918.37 699.28 916.44 697.58C916.873 695.003 917.938 692.574 919.54 690.51C919.803 690.166 920.084 689.836 920.38 689.52Z" fill="black"/>
<path opacity="0.1" d="M928.46 687.76C927.621 688.858 926.727 689.913 925.78 690.92C925.539 689.517 925.376 688.101 925.29 686.68C926.433 686.705 927.54 687.082 928.46 687.76Z" fill="black"/>
<path d="M942 719.72L935.16 722.72C935.16 722.72 933.66 722 931.51 720.66C924.33 716.24 909.87 705.11 919.51 691.99C929.15 678.87 937.28 702.4 940.51 713.91C941.46 717.36 942 719.72 942 719.72Z" fill="#18759D"/>
<path opacity="0.1" d="M960.15 690.73C961.146 689.701 962.499 689.092 963.93 689.03C963.84 691.68 963.58 693.8 963.58 693.8C962.37 692.853 961.225 691.828 960.15 690.73Z" fill="black"/>
<path opacity="0.1" d="M973 697.96C972.211 698.299 971.403 698.593 970.58 698.84L967.34 694.29C967.677 692.787 968.122 691.31 968.67 689.87C970.72 691.09 972.26 694.13 973 697.96Z" fill="black"/>
<path d="M956 727.68C955.62 727.76 955.23 727.83 954.84 727.88C931.92 731.37 947.28 719 947.28 719C947.28 719 948.28 718.05 949.72 716.49C952.48 713.49 956.64 708.1 957.12 703.16C957.84 695.73 958.67 688.76 967.44 690.8C976.21 692.84 977.68 723.33 956 727.68Z" fill="#18759D"/>
<path d="M955.55 784.77H911.74V796.29H955.55V784.77Z" fill="#D4DFEC"/>
<path d="M962.01 747.33H904.77V787.53H962.01V747.33Z" fill="#D4DFEC"/>
<path opacity="0.1" d="M955.55 784.77H911.74V796.29H955.55V784.77Z" fill="black"/>
<path opacity="0.1" d="M962.01 747.33H904.77V787.53H962.01V747.33Z" fill="black"/>
<path d="M958.43 784.77H914.62V796.29H958.43V784.77Z" fill="#D4DFEC"/>
<path opacity="0.1" d="M940.49 713.92C941.49 717.36 941.98 719.72 941.98 719.72L935.14 722.72C935.14 722.72 933.64 722 931.49 720.66C934.17 717.27 937.2 714.71 940.49 713.92Z" fill="black"/>
<path opacity="0.1" d="M956 727.68C955.62 727.76 955.23 727.83 954.84 727.88C931.92 731.37 947.28 719 947.28 719C947.28 719 948.28 718.05 949.72 716.49C954 719.92 955.75 723.78 956 727.68Z" fill="black"/>
<path d="M918.7 749.6C918.7 749.6 931.54 703.6 949.54 717.79C967.54 731.98 942.22 753.79 942.22 753.79L918.7 749.6Z" fill="#18759D"/>
<path opacity="0.1" d="M925.18 700.65C925.975 700.65 926.62 700.005 926.62 699.21C926.62 698.415 925.975 697.77 925.18 697.77C924.385 697.77 923.74 698.415 923.74 699.21C923.74 700.005 924.385 700.65 925.18 700.65Z" fill="black"/>
<path opacity="0.1" d="M925.06 707.37C925.855 707.37 926.5 706.725 926.5 705.93C926.5 705.135 925.855 704.49 925.06 704.49C924.265 704.49 923.62 705.135 923.62 705.93C923.62 706.725 924.265 707.37 925.06 707.37Z" fill="black"/>
<path opacity="0.1" d="M966.82 701.97C967.615 701.97 968.26 701.325 968.26 700.53C968.26 699.735 967.615 699.09 966.82 699.09C966.025 699.09 965.38 699.735 965.38 700.53C965.38 701.325 966.025 701.97 966.82 701.97Z" fill="black"/>
<path opacity="0.1" d="M933.22 736.41C934.015 736.41 934.66 735.765 934.66 734.97C934.66 734.175 934.015 733.53 933.22 733.53C932.425 733.53 931.78 734.175 931.78 734.97C931.78 735.765 932.425 736.41 933.22 736.41Z" fill="black"/>
<path opacity="0.1" d="M963.82 713.13C964.615 713.13 965.26 712.485 965.26 711.69C965.26 710.895 964.615 710.25 963.82 710.25C963.025 710.25 962.38 710.895 962.38 711.69C962.38 712.485 963.025 713.13 963.82 713.13Z" fill="black"/>
<path opacity="0.1" d="M948.94 728.01C949.735 728.01 950.38 727.365 950.38 726.57C950.38 725.775 949.735 725.13 948.94 725.13C948.145 725.13 947.5 725.775 947.5 726.57C947.5 727.365 948.145 728.01 948.94 728.01Z" fill="black"/>
<path opacity="0.1" d="M930.1 703.53C930.895 703.53 931.54 702.885 931.54 702.09C931.54 701.295 930.895 700.65 930.1 700.65C929.305 700.65 928.66 701.295 928.66 702.09C928.66 702.885 929.305 703.53 930.1 703.53Z" fill="black"/>
<path opacity="0.1" d="M962.86 706.29C963.655 706.29 964.3 705.645 964.3 704.85C964.3 704.055 963.655 703.41 962.86 703.41C962.065 703.41 961.42 704.055 961.42 704.85C961.42 705.645 962.065 706.29 962.86 706.29Z" fill="black"/>
<path opacity="0.1" d="M957.94 717.45C958.735 717.45 959.38 716.805 959.38 716.01C959.38 715.215 958.735 714.57 957.94 714.57C957.145 714.57 956.5 715.215 956.5 716.01C956.5 716.805 957.145 717.45 957.94 717.45Z" fill="black"/>
<path opacity="0.1" d="M942.82 735.33C943.615 735.33 944.26 734.685 944.26 733.89C944.26 733.095 943.615 732.45 942.82 732.45C942.025 732.45 941.38 733.095 941.38 733.89C941.38 734.685 942.025 735.33 942.82 735.33Z" fill="black"/>
<path opacity="0.1" d="M939.7 728.25C940.495 728.25 941.14 727.605 941.14 726.81C941.14 726.015 940.495 725.37 939.7 725.37C938.905 725.37 938.26 726.015 938.26 726.81C938.26 727.605 938.905 728.25 939.7 728.25Z" fill="black"/>
<path opacity="0.1" d="M932.26 712.29C933.055 712.29 933.7 711.645 933.7 710.85C933.7 710.055 933.055 709.41 932.26 709.41C931.465 709.41 930.82 710.055 930.82 710.85C930.82 711.645 931.465 712.29 932.26 712.29Z" fill="black"/>
<path opacity="0.1" d="M958.43 784.77H914.62V788.98H958.43V784.77Z" fill="black"/>
<path d="M964.9 747.33H907.66V787.53H964.9V747.33Z" fill="#D4DFEC"/>
<path opacity="0.1" d="M944.74 741.81C945.535 741.81 946.18 741.165 946.18 740.37C946.18 739.575 945.535 738.93 944.74 738.93C943.945 738.93 943.3 739.575 943.3 740.37C943.3 741.165 943.945 741.81 944.74 741.81Z" fill="black"/>
<path opacity="0.1" d="M936.1 743.61C936.895 743.61 937.54 742.965 937.54 742.17C937.54 741.375 936.895 740.73 936.1 740.73C935.305 740.73 934.66 741.375 934.66 742.17C934.66 742.965 935.305 743.61 936.1 743.61Z" fill="black"/>
<path d="M837.28 573.73C836.08 572.87 835.58 570.8 835.4 568.73C835.4 568.26 835.33 567.8 835.31 567.36C835.849 567.031 836.32 566.604 836.7 566.1C839.07 562.74 833.41 550.55 833.41 550.55C833.41 550.55 835.6 544.19 833.41 538.71C831.22 533.23 830.22 532.17 830.22 532.17C830.22 532.17 822.82 516.97 823.92 515.17C825.02 513.37 822.09 499.17 819.92 496.32C819.013 495.087 818.038 493.905 817 492.78C817 492.78 817.37 486.6 814.26 481.78C811.15 476.96 807.69 463.58 807.69 463.58C807.69 463.58 803.86 451.03 801.12 446.58C800.002 445.016 798.654 443.63 797.12 442.47C797.55 440.47 798.54 437.82 795.7 422.14C794.54 415.7 796.35 411.86 797.84 405.49C799.33 399.12 799.01 391.75 794.44 386.94C789.87 382.13 782.78 381.23 777.11 377.94C772.11 375.05 767.66 370.16 761.82 370.25C757.53 370.32 757.54 370.99 753.59 372.6C746.76 375.38 739.08 374.54 732.14 376.84C725.9 378.91 717.97 385.71 719.86 392.92C720.158 394.553 720.963 396.05 722.16 397.2C723.51 398.43 725.16 398.44 727.01 398.07C727.01 398.19 727.01 398.3 726.94 398.42C726.779 399.412 726.698 400.415 726.7 401.42C726.7 412.11 735.61 420.79 746.63 420.86C746.69 421.09 746.74 421.33 746.8 421.57C746.95 422.21 747.09 422.85 747.23 423.51C746.71 424.2 746.17 424.89 745.66 425.58C744.394 427.193 743.382 428.991 742.66 430.91C736.88 432.09 727.19 434 725.66 436.5C723.66 439.86 715.44 456.5 716.35 464.07C716.4 464.49 716.44 465.07 716.48 465.67C716.48 465.67 711.42 474.67 710.69 477.5C709.96 480.33 708.32 490.93 705.21 493.4C702.1 495.87 695.72 503.83 696.63 505.4C697.54 506.97 688.05 508.93 688.05 508.93C688.05 508.93 681.67 511.4 682.05 513.35C682.16 513.94 681.71 514.5 681.05 515.04C673.79 512.65 664.54 511.04 657.37 514.68C647.37 519.75 664.91 523.24 675.37 524.77C677.09 525.03 678.61 525.23 679.79 525.37C679.87 525.71 680.2 526.01 681.04 526.3C681.7 526.53 682.68 526.89 683.82 527.3L684.24 526C687.71 527.23 697.18 531.06 697.18 531.06C697.18 531.06 705.4 532.4 707.77 527.63C708.77 525.7 711.5 522.63 714.47 519.63L714.14 520.7L707.22 543.53C707.22 543.53 696.27 560.53 696.82 564.2C697.37 567.87 693.35 577.28 692.44 578.2C691.53 579.12 682.44 605.94 677.65 607.71C672.86 609.48 666.51 615.66 668.65 617.61C670.79 619.56 679.65 625.91 683.65 623.79C687.65 621.67 694.65 625.56 694.65 625.56C694.65 625.56 702.31 624.3 708.55 627.3C708.62 627.99 708.7 628.74 708.78 629.53C709.43 635.53 710.49 643.82 711.62 646.23C713.45 650.12 715.09 657.01 713.62 659.66C712.15 662.31 714.9 712.85 717.62 721.51C719.76 728.29 722.69 739.2 722.19 746.32C721.89 750.65 721.71 754.98 721.68 759.32C721.68 759.56 721.68 759.8 721.68 760.04C721.68 760.28 721.51 760.42 721.43 760.62V761.01C720.796 762.509 720.265 764.049 719.84 765.62C719.84 765.62 715.13 777.46 716.72 780.55C716.906 780.889 717.162 781.186 717.47 781.42C719.74 783.24 725.47 783.63 727.47 783.71L727.38 786.71H730.07C730.07 786.71 730.14 783.71 730.32 779.97C731.105 777.866 731.498 775.636 731.48 773.39C731.442 769.47 732.261 765.59 733.88 762.02C733.88 762.02 733.94 761.71 734 761.21C734.137 760.179 734.194 759.139 734.17 758.1C734.28 756.281 733.936 754.463 733.17 752.81C733.089 751.729 733.157 750.643 733.37 749.58C734.1 746.93 732.27 728.38 732.27 728.38L735.37 694.27C735.37 694.27 737.2 667.94 736.47 661.05C736.279 659.205 736.322 657.344 736.6 655.51C737.745 648.02 738.413 640.465 738.6 632.89C738.6 632.18 738.6 631.48 738.6 630.77C745.24 633.05 756.5 631.18 756.5 631.18C756.5 631.18 759.12 631.12 762.6 631.18C762.69 631.9 762.79 632.61 762.89 633.3C763.42 637.01 764.05 640.3 764.7 641.71C766.52 645.6 768.17 652.49 766.7 655.14C765.23 657.79 767.97 708.33 770.7 716.99C772.85 723.77 775.78 734.67 775.28 741.8C774.98 746.12 774.8 750.45 774.77 754.8V755.6C774.68 755.79 774.59 755.98 774.51 756.18C774.43 756.38 774.51 756.45 774.51 756.57C773.904 758.078 773.4 759.625 773 761.2C773 761.2 768.28 773.05 769.88 776.14C770.064 776.478 770.32 776.772 770.63 777C772.9 778.83 778.63 779.21 780.63 779.29L780.54 782.29H783.23C783.23 782.29 783.3 779.29 783.48 775.55C784.265 773.446 784.658 771.216 784.64 768.97C784.593 765.054 785.398 761.174 787 757.6C787.219 756.312 787.316 755.006 787.29 753.7C787.392 751.867 787.031 750.037 786.24 748.38C786.165 747.303 786.232 746.22 786.44 745.16C787.17 742.51 785.35 723.95 785.35 723.95L788.45 689.85C788.45 689.85 790.28 663.52 789.54 656.63C789.356 654.785 789.403 652.924 789.68 651.09C790.78 643.974 791.448 636.797 791.68 629.6C791.68 628.88 791.68 628.17 791.68 627.45C792.34 626.64 793.68 626 797.38 624.76C803.77 622.64 816.55 612.03 821.66 611.33C826.77 610.63 831.33 607.26 829.87 604.61C828.41 601.96 820.38 600.19 821.11 596.13C821.84 592.07 816.18 589.59 813.63 582.88C811.08 576.17 799.93 570.88 799.75 565.88C799.57 560.88 789.23 545.6 789.23 545.6C789.23 545.6 778.84 528.32 776.54 517.76C776.54 517.52 776.45 517.3 776.41 517.08H776.54C776.363 516.289 776.236 515.487 776.16 514.68C776.16 514.45 776.21 514.21 776.25 514H776.11V513.62C776.11 513.62 776.11 513.62 776.11 513.55C776.18 513.498 776.253 513.451 776.33 513.41L776.93 513.06L776.73 513.14C777.927 512.362 779.037 511.457 780.04 510.44C781.694 508.975 782.996 507.157 783.85 505.12C784.655 502.863 785.156 500.509 785.34 498.12L786.64 496.12C787.9 501.39 789.74 508.95 790.32 510.64C793.08 517.778 795.28 525.12 796.9 532.6C798.521 539.853 801.218 546.824 804.9 553.28C804.9 553.28 814.21 565.47 821.33 566C828.45 566.53 824.44 568.47 825.53 568.83L825.84 568.9L825.95 570.33L826.26 574.48C826.26 574.48 833.56 604.17 841.78 599.93C850 595.69 840 575.67 837.28 573.73Z" fill="url(#paint0_linear)"/>
<path d="M838.24 600.06C830.34 604.28 823.32 574.8 823.32 574.8L823.02 570.67L822.45 562.86L832.1 564.09C831.954 565.777 831.954 567.473 832.1 569.16C832.27 571.16 832.76 573.25 833.91 574.09C836.48 576.03 846.13 595.85 838.24 600.06Z" fill="#A1616A"/>
<path d="M719.21 772.2L719.88 771.69C719.677 771.886 719.453 772.057 719.21 772.2Z" fill="#A1616A"/>
<path d="M739.1 610.24V630.38C739.1 631.253 739.1 632.123 739.1 632.99C738.894 640.514 738.226 648.018 737.1 655.46C736.832 657.278 736.788 659.122 736.97 660.95C737.67 667.8 735.97 693.95 735.97 693.95L732.97 727.82C732.97 727.82 734.72 746.24 733.97 748.82C733.771 749.878 733.708 750.956 733.78 752.03C733.88 755.03 734.4 758.88 734.57 760.03V760.38L734.46 760.46L719.79 771.65C722.13 769.52 722.73 764.56 722.72 759.96C722.72 759.46 722.72 758.96 722.72 758.46C722.72 754.16 722.887 749.86 723.22 745.56C723.7 738.49 720.88 727.66 718.82 720.92C716.19 712.33 713.55 662.14 714.96 659.51C716.37 656.88 714.78 650.03 713.03 646.17C712 643.82 711 635.6 710.4 629.6C710.02 625.96 709.79 623.2 709.79 623.2L739.1 610.24Z" fill="#A1616A"/>
<path d="M770.26 767.7L770.98 767.16C770.76 767.365 770.519 767.546 770.26 767.7Z" fill="#A1616A"/>
<path d="M790.15 605.74V625.88C790.15 627.12 790.15 628.37 790.15 629.61C789.922 636.758 789.278 643.887 788.22 650.96C787.952 652.778 787.908 654.622 788.09 656.45C788.79 663.3 787.09 689.45 787.09 689.45L784.09 723.32C784.09 723.32 785.85 741.74 785.15 744.32C784.947 745.374 784.883 746.45 784.96 747.52C785.06 750.52 785.59 754.43 785.75 755.52C785.75 755.74 785.8 755.85 785.8 755.85L785.69 755.93L771 767.12C773.27 764.94 773.86 760.04 773.85 755.5C773.85 755 773.85 754.5 773.85 753.99C773.85 749.69 774.05 745.39 774.34 741.09C774.81 734.02 772 723.2 769.94 716.46C767.3 707.87 764.67 657.68 766.08 655.05C767.49 652.42 765.9 645.57 764.15 641.71C763.52 640.35 762.92 637.04 762.4 633.36C761.47 626.68 760.81 618.73 760.81 618.73L790.15 605.74Z" fill="#A1616A"/>
<path opacity="0.1" d="M762.75 414.77L762.6 415C761.054 417.189 759.068 419.031 756.769 420.409C754.47 421.786 751.909 422.669 749.25 423C748.471 423.109 747.686 423.163 746.9 423.16C746.84 422.92 746.79 422.68 746.73 422.45C745.58 417.45 744.36 413.45 744.36 413.45C744.36 413.45 745.67 411.56 747.58 409.15C752.77 402.59 762.33 392.22 761.58 406.08C761.419 408.887 761.758 411.701 762.58 414.39C762.65 414.46 762.69 414.6 762.75 414.77Z" fill="black"/>
<path d="M766.18 403.1C766.181 407.808 764.46 412.354 761.342 415.882C758.224 419.409 753.923 421.674 749.25 422.25C748.461 422.351 747.666 422.401 746.87 422.4H746.73C742.919 422.37 739.203 421.213 736.049 419.075C732.895 416.936 730.444 413.912 729.006 410.382C727.569 406.853 727.208 402.978 727.969 399.244C728.731 395.51 730.581 392.085 733.286 389.401C735.991 386.717 739.43 384.893 743.17 384.161C746.909 383.428 750.782 383.819 754.3 385.284C757.818 386.749 760.823 389.223 762.937 392.393C765.052 395.564 766.18 399.289 766.18 403.1Z" fill="#A1616A"/>
<path d="M784.9 459.34L766.18 475.34C766.18 475.34 745.77 446.22 748.18 440.25C748.95 438.38 748.86 435.06 748.37 431.36C748.1 429.36 747.71 427.15 747.27 425.07C747.14 424.42 747 423.78 746.86 423.15C746.8 422.91 746.75 422.67 746.69 422.44C745.54 417.44 744.32 413.44 744.32 413.44C744.32 413.44 745.63 411.55 747.54 409.14C752.73 402.58 762.29 392.21 761.54 406.07C761.379 408.877 761.718 411.691 762.54 414.38C762.54 414.54 762.63 414.7 762.69 414.85C765.35 423.03 771.83 429.56 776.81 433.61C778.849 435.287 781.004 436.818 783.26 438.19L784.9 459.34Z" fill="#A1616A"/>
<path opacity="0.1" d="M709.79 623.23L739.1 610.23V630.37C739.1 631.243 739.1 632.113 739.1 632.98C738.437 632.75 737.801 632.452 737.2 632.09C731.41 628.51 724.2 631.29 723.69 631.29C723.18 631.29 717.37 633.75 711.23 630.06C710.96 629.9 710.69 629.75 710.43 629.62C710 625.99 709.79 623.23 709.79 623.23Z" fill="black"/>
<path opacity="0.1" d="M790.15 605.74V625.88C790.15 627.12 790.15 628.37 790.15 629.61C789.734 630.306 789.399 631.048 789.15 631.82C788.09 634.28 780.9 635.16 774.58 634.12C770.565 633.595 766.519 633.341 762.47 633.36C761.54 626.68 760.88 618.73 760.88 618.73L790.15 605.74Z" fill="black"/>
<path d="M818.94 611.47C814.02 612.17 801.74 622.7 795.6 624.81C789.46 626.92 790.16 627.26 789.11 629.72C788.06 632.18 780.86 633.05 774.54 632.01C768.22 630.97 756.29 631.3 756.29 631.3C756.29 631.3 743 633.6 737.17 629.99C731.34 626.38 724.17 629.19 723.66 629.19C723.15 629.19 717.34 631.65 711.2 627.96C705.06 624.27 696.81 625.68 696.81 625.68C696.81 625.68 690.14 621.82 686.28 623.93C682.42 626.04 674 619.72 671.89 617.79C669.78 615.86 675.89 609.72 680.49 607.96C685.09 606.2 693.83 579.53 694.7 578.66C695.57 577.79 699.44 568.48 698.91 564.8C698.38 561.12 708.91 544.26 708.91 544.26L715.57 521.6L717.57 514.6L717.65 510.43C717.65 508.55 717.74 506.14 717.79 503.43C717.97 492.23 718.16 475.62 717.79 468.11C717.73 466.95 717.67 466.01 717.59 465.33C716.71 457.79 724.59 441.33 726.54 437.96C727.98 435.47 737.3 433.58 742.85 432.41C744.173 432.171 745.482 431.857 746.77 431.47C747.273 431.343 747.794 431.303 748.31 431.35C753.55 431.56 769 434.8 769 434.8C767.6 477.09 770.41 469.72 770.41 469.72C774.97 466.21 772.16 435.15 772.16 435.15C774.44 436.2 776.77 433.56 776.77 433.56L785.67 437.25C788.38 438.878 791.001 440.65 793.52 442.56C795.633 444.048 797.487 445.872 799.01 447.96C801.64 452.35 805.33 464.81 805.33 464.81L802.17 469.81C799.41 474.24 795.17 481.05 790.82 487.95L783.1 500.24C779.65 505.72 776.84 510.17 775.67 511.98C775.406 512.414 775.22 512.892 775.12 513.39C775.054 513.72 775.01 514.054 774.99 514.39C774.941 515.789 775.079 517.188 775.4 518.55C777.61 529.03 787.6 546.2 787.6 546.2C787.6 546.2 797.6 561.46 797.78 566.37C797.96 571.28 808.66 576.55 811.12 583.22C813.58 589.89 819.01 592.34 818.31 596.38C817.61 600.42 825.31 602.17 826.73 604.8C828.15 607.43 823.85 610.77 818.94 611.47Z" fill="#F5953C"/>
<path opacity="0.1" d="M832.08 569.16C829.37 570.99 824.6 570.92 823.02 570.67L822.45 562.86L832.1 564.09C831.948 565.776 831.941 567.473 832.08 569.16Z" fill="black"/>
<path d="M798.23 459.69L805.43 464.78C805.43 464.78 808.76 478.11 811.74 482.85C814.72 487.59 814.37 493.73 814.37 493.73C815.375 494.844 816.313 496.016 817.18 497.24C819.29 500.05 822.09 514.14 821.04 515.96C819.99 517.78 827.1 532.86 827.1 532.86C827.1 532.86 828.1 533.86 830.17 539.35C832.24 544.84 830.17 551.11 830.17 551.11C830.17 551.11 835.61 563.22 833.33 566.55C831.05 569.88 823.67 569.55 822.62 569.18C821.57 568.81 825.43 566.9 818.62 566.37C811.81 565.84 802.82 553.74 802.82 553.74C799.26 547.309 796.659 540.393 795.1 533.21C793.544 525.809 791.435 518.535 788.79 511.45C787.91 508.82 784.05 491.8 784.05 491.8L798.23 459.69Z" fill="#F5953C"/>
<path opacity="0.1" d="M744.36 459.69C744.36 459.69 743.83 500.4 738.92 508.47L744.36 459.69Z" fill="black"/>
<path opacity="0.1" d="M772.79 474.08C772.79 474.08 768.23 514.79 764.63 516.89C761.03 518.99 772.79 474.08 772.79 474.08Z" fill="black"/>
<path opacity="0.1" d="M766.18 468.29C766.18 468.29 765.07 506.68 759.28 510.47C753.49 514.26 766.18 468.29 766.18 468.29Z" fill="black"/>
<path opacity="0.1" d="M715.76 540.93C715.76 540.93 708.5 562.16 709.32 570.93C710.14 579.7 715.76 540.93 715.76 540.93Z" fill="black"/>
<path opacity="0.1" d="M775.5 519.95C766 522.08 740.3 525.9 717.7 511.84C717.7 509.96 717.79 507.55 717.84 504.84C726.42 509.56 750.52 521.84 762.79 518.4C768.91 516.65 772.79 515.54 775.22 514.82C774.977 516.532 775.072 518.275 775.5 519.95Z" fill="black"/>
<path opacity="0.1" d="M775.5 517.85C766 519.97 740.3 523.79 717.7 509.74C717.7 507.86 717.79 505.44 717.84 502.74C726.42 507.46 750.52 519.74 762.79 516.3C768.91 514.56 772.79 513.44 775.22 512.73C774.979 514.439 775.074 516.178 775.5 517.85Z" fill="black"/>
<path d="M775.5 518.6C766 520.72 740.3 524.54 717.7 510.49C717.7 508.61 717.79 506.2 717.84 503.49C726.42 508.21 750.52 520.49 762.79 517.05C768.91 515.31 772.79 514.19 775.22 513.48C774.979 515.189 775.074 516.928 775.5 518.6Z" fill="#605D82"/>
<path opacity="0.1" d="M775.5 518.6C766 520.72 740.3 524.54 717.7 510.49C717.7 508.61 717.79 506.2 717.84 503.49C726.42 508.21 750.52 520.49 762.79 517.05C768.91 515.31 772.79 514.19 775.22 513.48C774.979 515.189 775.074 516.928 775.5 518.6Z" fill="black"/>
<path opacity="0.1" d="M734.61 760.07C734.61 760.3 734.56 760.45 734.55 760.5L719.88 771.69C722.22 769.56 722.82 764.6 722.81 760C722.81 759.5 722.81 759 722.81 758.5C724.101 755.321 725.935 752.391 728.23 749.84C730.73 749.19 732.3 749.84 733.23 750.97C733.23 751.08 733.23 751.19 733.23 751.29C733.429 751.532 733.604 751.793 733.75 752.07C735.22 754.6 734.8 758.73 734.61 760.07Z" fill="black"/>
<path opacity="0.1" d="M733.47 754.39L722.4 761.99C722.4 761.99 722.47 761.1 722.57 759.79C723.888 756.391 725.809 753.257 728.24 750.54C730.74 749.9 732.31 750.54 733.24 751.67C733.33 753.31 733.47 754.39 733.47 754.39Z" fill="black"/>
<path d="M734.54 761.22C732.986 764.783 732.202 768.633 732.24 772.52C732.306 775.715 731.493 778.866 729.89 781.63C729.666 782.022 729.408 782.393 729.12 782.74C729.12 782.74 721.43 782.68 718.74 780.45C718.435 780.223 718.182 779.933 718 779.6C716.46 776.53 721 764.77 721 764.77C723.38 755.7 728.22 750.86 728.22 750.86C736.85 748.6 734.54 761.22 734.54 761.22Z" fill="#5A5773"/>
<path opacity="0.1" d="M729.89 781.6C729.666 781.991 729.408 782.363 729.12 782.71C729.12 782.71 721.43 782.65 718.74 780.42C720.06 776.04 724.29 762.79 726.26 765.04C728.23 767.29 729.42 777.37 729.89 781.6Z" fill="black"/>
<path d="M728.83 765.89L728.3 785.75H730.88C730.88 785.75 731.29 768.33 732.45 765.89C733.61 763.45 728.83 765.89 728.83 765.89Z" fill="#5A5773"/>
<path opacity="0.1" d="M785.66 755.6L785.6 756.01L771 767.12C773.27 764.94 773.86 760.04 773.85 755.5C773.85 755 773.85 754.5 773.85 753.99C775.139 750.815 776.969 747.888 779.26 745.34C781.76 744.69 783.34 745.34 784.31 746.46C784.31 746.58 784.31 746.68 784.31 746.79C784.512 747.026 784.686 747.285 784.83 747.56C786.28 750.13 785.85 754.27 785.66 755.6Z" fill="black"/>
<path opacity="0.1" d="M784.52 749.88L773.45 757.49C773.45 757.49 773.52 756.6 773.63 755.29C774.939 751.888 776.857 748.754 779.29 746.04C781.79 745.4 783.36 745.99 784.34 747.17C784.38 748.81 784.52 749.88 784.52 749.88Z" fill="black"/>
<path d="M785.6 756.72C784.038 760.28 783.251 764.132 783.29 768.02C783.356 771.215 782.543 774.366 780.94 777.13C780.713 777.519 780.455 777.891 780.17 778.24C780.17 778.24 772.48 778.18 769.79 775.95C769.494 775.716 769.249 775.423 769.07 775.09C767.54 772.02 772.07 760.26 772.07 760.26C774.45 751.19 779.29 746.35 779.29 746.35C787.9 744.12 785.6 756.72 785.6 756.72Z" fill="#5A5773"/>
<path opacity="0.1" d="M780.94 777.13C780.713 777.519 780.455 777.891 780.17 778.24C780.17 778.24 772.48 778.18 769.79 775.95C771.11 771.57 775.34 758.31 777.31 760.56C779.28 762.81 780.47 772.87 780.94 777.13Z" fill="black"/>
<path d="M779.89 761.39L779.35 781.24H781.93C781.93 781.24 782.34 763.83 783.5 761.39C784.66 758.95 779.89 761.39 779.89 761.39Z" fill="#5A5773"/>
<path opacity="0.1" d="M802.88 475.31C802.76 480.31 800.03 485.64 795.24 487.13C793.84 487.56 792.35 487.66 790.92 487.95C790.232 488.077 789.561 488.282 788.92 488.56C785.85 489.97 784.32 493.47 783.7 496.79C783.48 497.93 783.34 499.08 783.2 500.24C783.034 502.448 782.574 504.624 781.83 506.71C780.46 509.923 778.098 512.614 775.09 514.39C771.597 516.466 767.831 518.041 763.9 519.07C765.885 516.012 767.181 512.559 767.699 508.95C768.217 505.341 767.945 501.663 766.9 498.17C766.26 496.12 764.9 493.83 762.73 493.89C761.04 493.94 759.83 495.44 758.57 496.58C752.37 502.16 742.67 499.67 734.82 496.86C748.82 482.63 752.71 459.52 744.27 441.47C743.503 440.062 742.925 438.559 742.55 437C742.302 435.448 742.449 433.859 742.98 432.38C743.662 430.487 744.619 428.704 745.82 427.09C746.31 426.4 746.82 425.72 747.34 425.03C748.01 424.12 748.68 423.2 749.28 422.25C750.169 420.92 750.844 419.459 751.28 417.92C752.17 414.52 750.92 410.22 747.63 409.06L747.45 408.99C743.81 407.85 742.68 407.51 740.2 404.59C738.54 402.65 737.6 399.59 734.76 399.02C732.58 398.57 730.14 399.54 727.85 400.13C728.296 397.249 729.388 394.506 731.045 392.107C732.701 389.709 734.88 387.716 737.417 386.279C739.953 384.843 742.783 383.999 745.692 383.811C748.601 383.624 751.515 384.098 754.215 385.197C756.915 386.297 759.331 387.993 761.282 390.16C763.233 392.326 764.668 394.906 765.48 397.706C766.291 400.506 766.458 403.454 765.968 406.328C765.478 409.202 764.344 411.927 762.65 414.3C765.21 422.7 771.84 429.4 776.92 433.53L785.82 437.22C788.53 438.848 791.151 440.62 793.67 442.53C795.044 448.774 796.937 454.892 799.33 460.82C800.55 463.742 801.552 466.75 802.33 469.82C802.741 471.62 802.926 473.464 802.88 475.31Z" fill="black"/>
<path d="M748.1 408.29C751.52 409.36 752.84 413.76 751.93 417.22C751.02 420.68 748.57 423.48 746.5 426.39C744.43 429.3 742.59 432.78 743.22 436.3C743.595 437.859 744.173 439.362 744.94 440.77C753.38 458.82 749.44 481.92 735.49 496.16C743.34 498.97 753.05 501.46 759.24 495.88C760.5 494.74 761.71 493.24 763.4 493.19C765.55 493.12 766.94 495.42 767.57 497.47C768.615 500.961 768.887 504.638 768.369 508.245C767.851 511.852 766.555 515.304 764.57 518.36C771.8 516.26 779.74 513.01 782.51 506.01C783.75 502.88 783.75 499.4 784.37 496.08C784.99 492.76 786.52 489.27 789.59 487.86C791.59 486.96 793.84 487.07 795.91 486.43C800.7 484.94 803.43 479.62 803.55 474.61C803.67 469.6 801.75 464.79 799.95 460.12C789.95 434.12 799.35 454.95 793.87 423.66C792.75 417.27 794.5 413.45 795.93 407.13C797.36 400.81 797.05 393.49 792.66 388.71C788.27 383.93 781.45 383.04 776 379.8C771.17 376.92 766.92 372.07 761.3 372.16C757.18 372.22 757.19 372.89 753.39 374.49C746.82 377.25 739.45 376.42 732.77 378.7C726.77 380.76 719.15 387.5 720.97 394.7C723.42 404.39 730.14 397.26 735.38 398.35C738.22 398.95 739.16 401.97 740.82 403.92C743.34 406.8 744.46 407.15 748.1 408.29Z" fill="#4A4347"/>
<path d="M685 526.49C685 526.49 682.16 526.19 678.34 525.6C668.34 524.08 651.43 520.6 661.05 515.6C669.88 510.98 682.05 514.9 689.17 518.04C691.195 518.934 693.171 519.935 695.09 521.04L685 526.49Z" fill="#A1616A"/>
<path opacity="0.1" d="M738.22 465.48C738.22 465.48 733.66 488.48 731.38 493.55C729.1 498.62 725.38 511.98 725.38 511.98C725.38 511.98 719.99 516.86 715.54 521.6L717.54 514.6L717.62 510.43C717.62 508.55 717.71 506.14 717.76 503.43C717.94 492.23 718.13 475.62 717.76 468.11C718.15 467.38 718.4 466.93 718.4 466.93L721.95 461.3C721.95 461.3 727.74 445.86 731.07 441.47C734.4 437.08 738.22 465.48 738.22 465.48Z" fill="black"/>
<path opacity="0.1" d="M687.79 523.44C687.79 523.44 687.28 525.44 686.42 528.14C685.33 527.7 684.42 527.35 683.75 527.14C680.75 526.14 684.28 524.86 683.4 522.23C682.65 519.97 681.26 520.68 679.66 520.05C680.707 518.626 681.839 517.267 683.05 515.98L687.79 523.44Z" fill="black"/>
<path d="M721.37 461.27L717.82 466.9C717.82 466.9 713 475.83 712.25 478.6C711.5 481.37 710 491.97 707 494.43C704 496.89 697.87 504.78 698.75 506.36C699.63 507.94 690.5 509.87 690.5 509.87C690.5 509.87 684.36 512.33 684.71 514.26C685.06 516.19 679.62 517.77 681.55 519.17C683.48 520.57 685.24 519.17 686.12 521.8C687 524.43 683.48 525.67 686.47 526.72C689.46 527.77 699.28 531.88 699.28 531.88C699.28 531.88 707.17 533.21 709.45 528.47C711.73 523.73 724.72 511.98 724.72 511.98C724.72 511.98 728.4 498.64 730.72 493.55C733.04 488.46 737.57 465.48 737.57 465.48C737.57 465.48 733.88 437.05 730.57 441.48C727.26 445.91 721.37 461.27 721.37 461.27Z" fill="#F5953C"/>
<path opacity="0.1" d="M711.37 506.54C711.37 506.54 694 508.82 703.3 512.68C712.6 516.54 715.76 512.68 715.76 512.68L711.37 506.54Z" fill="black"/>
<path opacity="0.1" d="M689.79 516.89C689.79 516.89 699.97 514.79 702.6 516.89C705.23 518.99 689.79 516.89 689.79 516.89Z" fill="black"/>
<path opacity="0.1" d="M688.74 522.16C688.74 522.16 689.44 520.4 692.95 522.16C696.46 523.92 688.74 522.16 688.74 522.16Z" fill="black"/>
<path opacity="0.1" d="M803.58 538.92C803.58 538.92 804.64 554.92 808.95 555.44C813.26 555.96 803.58 538.92 803.58 538.92Z" fill="black"/>
<path opacity="0.1" d="M812.8 502.7C812.8 502.7 813.53 507.59 808.95 508.47C804.37 509.35 812.8 502.7 812.8 502.7Z" fill="black"/>
<path opacity="0.1" d="M760.85 550.29C760.85 550.29 760.62 599.66 770.68 605.74L760.85 550.29Z" fill="black"/>
<path opacity="0.1" d="M774.18 552.4C774.18 552.4 774 601.76 784 607.85L774.18 552.4Z" fill="black"/>
<path opacity="0.1" d="M720.72 659.29C722.998 659.078 725.292 659.078 727.57 659.29C731.38 659.6 720.72 659.29 720.72 659.29Z" fill="black"/>
<path opacity="0.1" d="M720.72 662.74C722.998 662.528 725.292 662.528 727.57 662.74C731.38 663.09 720.72 662.74 720.72 662.74Z" fill="black"/>
<path opacity="0.1" d="M772.77 655.24C775.048 655.028 777.342 655.028 779.62 655.24C783.43 655.6 772.77 655.24 772.77 655.24Z" fill="black"/>
<path opacity="0.1" d="M773.94 658C776.218 657.788 778.512 657.788 780.79 658C784.59 658.35 773.94 658 773.94 658Z" fill="black"/>
<g opacity="0.1">
<path opacity="0.1" d="M739.18 494.43C753.18 480.2 757.07 457.1 748.63 439.04C747.863 437.632 747.285 436.129 746.91 434.57C746.28 431.05 748.11 427.57 750.19 424.66C752.27 421.75 754.72 418.95 755.62 415.49C756.52 412.03 755.21 407.63 751.79 406.57C748.15 405.43 747.02 405.08 744.54 402.16C742.88 400.22 741.94 397.16 739.1 396.6C733.86 395.51 727.1 402.6 724.69 392.94C723.31 387.52 727.34 382.34 731.99 379.25C726.18 381.66 719.46 388.06 721.18 394.83C723.63 404.52 730.35 397.4 735.59 398.49C738.43 399.08 739.37 402.11 741.03 404.05C743.52 406.97 744.64 407.32 748.28 408.46C751.7 409.52 753.02 413.92 752.11 417.38C751.2 420.84 748.75 423.64 746.68 426.55C744.61 429.46 742.77 432.94 743.4 436.47C743.777 438.025 744.355 439.525 745.12 440.93C753.56 458.99 749.62 482.09 735.67 496.32C743.23 499.03 752.5 501.43 758.67 496.63C752.82 498.69 745.42 496.66 739.18 494.43Z" fill="black"/>
<path opacity="0.1" d="M793.31 486.14C792.567 486.478 791.89 486.945 791.31 487.52C792.89 487.13 794.56 487.08 796.11 486.59C797.312 486.218 798.422 485.598 799.37 484.77C797.38 485.33 795.2 485.27 793.31 486.14Z" fill="black"/>
<path opacity="0.1" d="M775.89 513.89C773.427 514.991 770.887 515.91 768.29 516.64C770.275 513.584 771.571 510.132 772.089 506.525C772.607 502.918 772.335 499.241 771.29 495.75C770.66 493.75 769.29 491.4 767.12 491.46C765.816 491.661 764.633 492.338 763.8 493.36C765.8 493.43 767.17 495.65 767.8 497.64C768.845 501.131 769.117 504.808 768.599 508.415C768.081 512.022 766.785 515.474 764.8 518.53C768.692 517.499 772.423 515.938 775.89 513.89Z" fill="black"/>
</g>
</g>
<defs>
<linearGradient id="paint0_linear" x1="749.71" y1="786.87" x2="749.71" y2="370.36" gradientUnits="userSpaceOnUse">
<stop stop-color="#808080" stop-opacity="0.25"/>
<stop offset="0.54" stop-color="#808080" stop-opacity="0.12"/>
<stop offset="1" stop-color="#808080" stop-opacity="0.1"/>
</linearGradient>
<clipPath id="clip0">
<rect width="1130" height="799.21" fill="white"/>
</clipPath>
</defs>
</svg>
