<svg width="500" height="500" viewBox="0 0 500 500" fill="none" xmlns="http://www.w3.org/2000/svg">
<path d="M70.82 308.44C75.97 325.13 85.92 346.19 103.82 352.18C130.29 361.06 145.26 330.31 151.58 310.18C160.83 280.77 167.07 250.18 180.58 222.31C191.26 200.31 210.53 174.9 237.09 172.51C251.38 171.23 259.64 180.45 264.15 193.07C269.73 208.68 272.27 225.18 276.34 241.25C284.34 273.03 308.55 302.4 340.18 312.64C358.18 318.46 377.33 317.76 394.29 309.02C467.53 271.26 438.73 158.53 391.15 113.5C314.23 40.6699 189 62.3699 118.83 133.18C90.75 161.5 71.65 199.18 66.26 238.81C63.25 261 63.93 286.12 70.82 308.44Z" fill="#F5C23C" fill-opacity="0.15"/>
<path d="M250 427.56C357.082 427.56 443.89 422.492 443.89 416.24C443.89 409.988 357.082 404.92 250 404.92C142.918 404.92 56.11 409.988 56.11 416.24C56.11 422.492 142.918 427.56 250 427.56Z" fill="#F5F5F5" fill-opacity="0.11"/>
<path d="M240.91 399.58C240.914 401.024 240.571 402.447 239.91 403.73C239.354 404.854 238.472 405.784 237.38 406.4C237.38 406.4 233.63 408.65 233.12 408.87C232.427 409.165 231.683 409.318 230.93 409.32C226.85 409.32 223.55 405.01 223.55 399.69C223.519 397.375 224.2 395.106 225.5 393.19L223.11 380L217 345.81L203.8 272.53H213.64L226.81 345.81L233 380L235 391.51L237.06 392.61C239.31 393.6 240.91 396.34 240.91 399.58Z" fill="#263238"/>
<path opacity="0.4" d="M240.91 399.58C240.914 401.024 240.571 402.447 239.91 403.73C239.354 404.854 238.472 405.784 237.38 406.4C237.38 406.4 233.63 408.65 233.12 408.87C232.427 409.165 231.683 409.318 230.93 409.32C226.85 409.32 223.55 405.01 223.55 399.69C223.519 397.375 224.2 395.106 225.5 393.19L223.11 380L217 345.81L203.8 272.53H213.64L226.81 345.81L233 380L235 391.51L237.06 392.61C239.31 393.6 240.91 396.34 240.91 399.58Z" fill="white"/>
<path opacity="0.2" d="M240.91 399.58C240.91 403.65 238.38 406.96 235.26 406.96C232.14 406.96 229.6 403.65 229.6 399.58C229.6 395.51 232.13 392.2 235.26 392.2C238.39 392.2 240.91 395.5 240.91 399.58Z" fill="white"/>
<path opacity="0.2" d="M232.95 380H223.11L216.97 345.81L203.8 272.53H213.64L226.81 345.81L232.95 380Z" fill="black"/>
<path d="M411.38 294.8H367.31V307.4H411.38V294.8Z" fill="#263238"/>
<path d="M407.52 333.56L421.42 263.88C421.489 263.531 421.481 263.171 421.394 262.825C421.308 262.48 421.146 262.158 420.92 261.882C420.695 261.607 420.411 261.385 420.089 261.233C419.767 261.08 419.416 261.001 419.06 261H414.83C414.005 261 413.205 261.286 412.567 261.809C411.929 262.333 411.492 263.061 411.33 263.87L397.42 333.55C397.351 333.899 397.359 334.259 397.446 334.605C397.532 334.95 397.694 335.272 397.92 335.548C398.145 335.823 398.429 336.045 398.751 336.197C399.072 336.35 399.424 336.429 399.78 336.43H404C404.829 336.434 405.633 336.151 406.275 335.627C406.917 335.103 407.358 334.373 407.52 333.56Z" fill="#263238"/>
<path d="M418.65 291.66H410.11C407.54 291.66 405.47 295.66 405.47 300.66C405.47 305.66 407.54 309.66 410.11 309.66H418.65C421.21 309.66 423.29 305.66 423.29 300.66C423.29 295.66 421.21 291.66 418.65 291.66Z" fill="#263238"/>
<path opacity="0.2" d="M422.72 300.68C422.72 304.39 421.25 307.39 419.43 307.39C417.61 307.39 416.13 304.39 416.13 300.68C416.13 296.97 417.61 293.96 419.43 293.96C421.25 293.96 422.72 297 422.72 300.68Z" fill="white"/>
<path opacity="0.2" d="M407.52 333.56L421.42 263.88C421.489 263.531 421.481 263.171 421.394 262.825C421.308 262.48 421.146 262.158 420.92 261.882C420.695 261.607 420.411 261.385 420.089 261.233C419.767 261.08 419.416 261.001 419.06 261H414.83C414.005 261 413.205 261.286 412.567 261.809C411.929 262.333 411.492 263.061 411.33 263.87L397.42 333.55C397.351 333.899 397.359 334.259 397.446 334.605C397.532 334.95 397.694 335.272 397.92 335.548C398.145 335.823 398.429 336.045 398.751 336.197C399.072 336.35 399.424 336.429 399.78 336.43H404C404.829 336.434 405.633 336.151 406.275 335.627C406.917 335.103 407.358 334.373 407.52 333.56Z" fill="white"/>
<path d="M406.91 391.12V413.36H180.69V407.17H227.79L235 391.12H406.91Z" fill="#263238"/>
<path opacity="0.2" d="M406.91 391.12V413.36H320.69V407.17H367.79L375 391.12H406.91Z" fill="white"/>
<path d="M400.91 399.58C400.914 401.024 400.571 402.447 399.91 403.73C399.354 404.854 398.472 405.784 397.38 406.4C397.38 406.4 393.63 408.65 393.12 408.87C392.427 409.165 391.683 409.318 390.93 409.32C386.85 409.32 383.55 405.01 383.55 399.69C383.534 397.369 384.232 395.1 385.55 393.19L383.11 380L377 345.81L363.8 272.53H373.64L386.81 345.81L393 380L395 391.51L397.06 392.61C399.31 393.6 400.91 396.34 400.91 399.58Z" fill="#263238"/>
<path opacity="0.4" d="M400.91 399.58C400.914 401.024 400.571 402.447 399.91 403.73C399.354 404.854 398.472 405.784 397.38 406.4C397.38 406.4 393.63 408.65 393.12 408.87C392.427 409.165 391.683 409.318 390.93 409.32C386.85 409.32 383.55 405.01 383.55 399.69C383.534 397.369 384.232 395.1 385.55 393.19L383.11 380L377 345.81L363.8 272.53H373.64L386.81 345.81L393 380L395 391.51L397.06 392.61C399.31 393.6 400.91 396.34 400.91 399.58Z" fill="white"/>
<path opacity="0.2" d="M400.91 399.58C400.91 403.65 398.38 406.96 395.26 406.96C392.14 406.96 389.6 403.65 389.6 399.58C389.6 395.51 392.13 392.2 395.26 392.2C398.39 392.2 400.91 395.5 400.91 399.58Z" fill="white"/>
<path opacity="0.2" d="M392.95 380H383.11L376.97 345.81L363.8 272.53H373.64L386.81 345.81L392.95 380Z" fill="black"/>
<path d="M376.73 374.08H167.56C163.13 374.08 160.26 370.43 161.16 365.94L189.56 223.66C190.048 221.43 191.259 219.424 193.004 217.952C194.748 216.481 196.93 215.626 199.21 215.52H408.38C412.81 215.52 415.68 219.17 414.79 223.66L386.39 365.94C385.9 368.171 384.687 370.177 382.941 371.649C381.194 373.12 379.011 373.975 376.73 374.08Z" fill="#263238"/>
<path opacity="0.1" d="M376.73 374.08H167.56C163.13 374.08 160.26 370.43 161.16 365.94L189.56 223.66C190.048 221.43 191.259 219.424 193.004 217.952C194.748 216.481 196.93 215.626 199.21 215.52H408.38C412.81 215.52 415.68 219.17 414.79 223.66L386.39 365.94C385.9 368.171 384.687 370.177 382.941 371.649C381.194 373.12 379.011 373.975 376.73 374.08Z" fill="white"/>
<path d="M366.05 350.67H187.59L211.92 228.79H390.37L366.05 350.67Z" fill="#F5C23C"/>
<path opacity="0.2" d="M389.37 313.84H381.46C381.039 313.853 380.621 313.768 380.239 313.59C379.857 313.412 379.522 313.147 379.262 312.817C379.001 312.486 378.821 312.098 378.738 311.686C378.654 311.273 378.669 310.846 378.78 310.44L385 279.16C385.204 278.233 385.705 277.398 386.427 276.783C387.149 276.167 388.053 275.804 389 275.75H397C397.422 275.737 397.842 275.823 398.225 276.001C398.608 276.179 398.944 276.445 399.205 276.776C399.467 277.108 399.647 277.497 399.731 277.911C399.815 278.325 399.801 278.752 399.69 279.16L393.44 310.44C393.234 311.378 392.723 312.221 391.986 312.836C391.25 313.451 390.329 313.805 389.37 313.84V313.84Z" fill="white"/>
<path opacity="0.2" d="M396.76 285.07C396.42 286.626 395.577 288.026 394.36 289.053C393.143 290.08 391.621 290.676 390.03 290.75C389.328 290.77 388.631 290.625 387.994 290.327C387.358 290.03 386.8 289.587 386.366 289.035C385.931 288.483 385.632 287.836 385.492 287.148C385.352 286.46 385.375 285.748 385.56 285.07C385.902 283.516 386.746 282.118 387.963 281.093C389.18 280.068 390.701 279.473 392.29 279.4C392.992 279.378 393.689 279.522 394.325 279.818C394.962 280.115 395.52 280.557 395.954 281.108C396.389 281.659 396.688 282.305 396.828 282.993C396.968 283.681 396.945 284.393 396.76 285.07Z" fill="black"/>
<path opacity="0.2" d="M388.55 309.73H383.93C383.773 309.736 383.616 309.704 383.473 309.638C383.33 309.572 383.204 309.473 383.107 309.349C383.01 309.226 382.943 309.08 382.912 308.926C382.881 308.771 382.887 308.612 382.93 308.46L386.08 292.69C386.155 292.342 386.342 292.029 386.614 291.8C386.885 291.57 387.225 291.436 387.58 291.42H392.2C392.357 291.414 392.514 291.446 392.657 291.512C392.8 291.578 392.926 291.677 393.023 291.801C393.121 291.924 393.187 292.07 393.218 292.224C393.249 292.379 393.243 292.538 393.2 292.69L390.05 308.46C389.975 308.808 389.788 309.121 389.516 309.35C389.245 309.58 388.905 309.714 388.55 309.73V309.73Z" fill="black"/>
<path d="M215.75 284.26C215.75 284.26 231.24 264.02 240.91 259.46C250.58 254.9 249 280.63 255.33 287.35C261.66 294.07 275.51 266 285 263.62C294.49 261.24 288.71 298.56 297.14 307.39C305.57 316.22 365.08 254.91 365.08 254.91L361.82 262.43L370.15 253.73L361.82 266L367.31 261C367.31 261 339.67 293.33 314.9 309.73C290.13 326.13 286.19 308.73 286.19 302.61C286.19 296.49 286.33 276.42 282.3 275.75C278.27 275.08 262.45 298.48 254.93 300.43C247.41 302.38 245.04 291.43 245.04 291.43C245.04 291.43 248.04 295.14 252.47 294.81C252.47 294.81 247.42 295.02 245.47 284.27C243.52 273.52 242.3 265.21 237.95 268.37C233.6 271.53 220.55 287.37 220.55 287.37L222.39 281.79L211 294.8L220.5 281.8L215.75 284.26Z" fill="white"/>
<path d="M203.69 345.41H194.2L195.99 336.45H205.48L203.69 345.41Z" fill="white"/>
<path opacity="0.8" d="M214.88 345.41H205.38L207.17 336.45H216.66L214.88 345.41Z" fill="white"/>
<path opacity="0.6" d="M226.05 345.41H216.56L218.35 336.45H227.84L226.05 345.41Z" fill="white"/>
<path opacity="0.4" d="M237.23 345.41H227.74L229.53 336.45H239.02L237.23 345.41Z" fill="white"/>
<path opacity="0.2" d="M248.41 345.41H238.92L240.71 336.45H250.2L248.41 345.41Z" fill="white"/>
<path d="M303.434 170.844L244.117 186.505L248.62 203.561L307.937 187.899L303.434 170.844Z" fill="#F5C23C"/>
<path opacity="0.6" d="M303.434 170.844L244.117 186.505L248.62 203.561L307.937 187.899L303.434 170.844Z" fill="white"/>
<path d="M257.439 184.707L247.758 187.302L251.305 200.533L260.985 197.938L257.439 184.707Z" fill="#263238"/>
<path opacity="0.8" d="M266.148 182.599L256.499 185.146L259.981 198.334L269.63 195.787L266.148 182.599Z" fill="#263238"/>
<path opacity="0.6" d="M278.258 179.099L268.578 181.694L272.124 194.925L281.805 192.33L278.258 179.099Z" fill="#263238"/>
<path opacity="0.4" d="M286.918 177.106L277.269 179.654L280.751 192.842L290.4 190.294L286.918 177.106Z" fill="#263238"/>
<path opacity="0.2" d="M299.08 173.501L289.399 176.095L292.946 189.326L302.626 186.731L299.08 173.501Z" fill="#263238"/>
<path d="M308.02 170.07H246.67V187.71H308.02V170.07Z" fill="#F5C23C"/>
<path opacity="0.7" d="M308.02 170.07H246.67V187.71H308.02V170.07Z" fill="white"/>
<path d="M258.22 171.9H248.24V185.54H258.22V171.9Z" fill="#F5C23C"/>
<path opacity="0.8" d="M268.97 171.9H258.99V185.54H268.97V171.9Z" fill="#F5C23C"/>
<path opacity="0.6" d="M279.71 171.9H269.73V185.54H279.71V171.9Z" fill="#F5C23C"/>
<path opacity="0.4" d="M290.46 171.9H280.48V185.54H290.46V171.9Z" fill="#F5C23C"/>
<path opacity="0.2" d="M301.21 171.9H291.23V185.54H301.21V171.9Z" fill="#F5C23C"/>
<path d="M305.54 186.63C306.142 186.63 306.63 186.142 306.63 185.54C306.63 184.938 306.142 184.45 305.54 184.45C304.938 184.45 304.45 184.938 304.45 185.54C304.45 186.142 304.938 186.63 305.54 186.63Z" fill="#263238"/>
<path d="M309.64 190.39C309.642 190.6 309.6 190.808 309.519 191.001C309.437 191.195 309.316 191.37 309.165 191.515C309.013 191.66 308.833 191.773 308.636 191.846C308.439 191.919 308.23 191.951 308.02 191.94C306.32 191.94 305.21 190.21 304.6 188.79L305.6 188.53C306.13 189.71 306.95 190.91 308.01 190.91C308.34 190.91 308.57 190.81 308.6 190.31C308.577 189.462 308.309 188.64 307.83 187.94C307.58 187.481 307.241 187.078 306.832 186.753C306.423 186.428 305.953 186.189 305.45 186.05C305.329 186.016 305.224 185.938 305.157 185.832C305.09 185.725 305.064 185.598 305.085 185.473C305.106 185.349 305.173 185.237 305.271 185.159C305.37 185.081 305.494 185.042 305.62 185.05C306.281 185.176 306.898 185.472 307.41 185.91C308.077 186.457 308.621 187.139 309.006 187.911C309.39 188.683 309.606 189.528 309.64 190.39Z" fill="#263238"/>
<g opacity="0.2">
<path opacity="0.2" d="M309.64 190.39C309.642 190.6 309.6 190.808 309.519 191.001C309.437 191.195 309.316 191.37 309.165 191.515C309.013 191.66 308.833 191.773 308.636 191.846C308.439 191.919 308.23 191.951 308.02 191.94C306.32 191.94 305.21 190.21 304.6 188.79L305.6 188.53C306.13 189.71 306.95 190.91 308.01 190.91C308.34 190.91 308.57 190.81 308.6 190.31C308.577 189.462 308.309 188.64 307.83 187.94C307.58 187.481 307.241 187.078 306.832 186.753C306.423 186.428 305.953 186.189 305.45 186.05C305.329 186.016 305.224 185.938 305.157 185.832C305.09 185.725 305.064 185.598 305.085 185.473C305.106 185.349 305.173 185.237 305.271 185.159C305.37 185.081 305.494 185.042 305.62 185.05C306.281 185.176 306.898 185.472 307.41 185.91C308.077 186.457 308.621 187.139 309.006 187.911C309.39 188.683 309.606 189.528 309.64 190.39Z" fill="white"/>
</g>
<path d="M366.53 189.15C371.11 199.26 374.21 211.47 370.15 215.52C366.09 219.57 352.08 204.82 352.08 204.82L355.23 202.69C355.23 202.69 365.07 207.87 365.58 207.52C366.09 207.17 361.82 192.58 361.82 192.58L366.53 189.15Z" fill="#EBB376"/>
<path d="M298.88 191.6C298.158 191.017 297.47 190.392 296.82 189.73C295.96 188.83 286.77 188.92 286.35 189.91C285.93 190.9 287.69 195.42 289.22 195.91C290.75 196.4 297.22 195.7 298.3 195.05C299.38 194.4 298.88 191.6 298.88 191.6Z" fill="#EBB376"/>
<path d="M338.3 393.9L333 394C327.57 368.52 323.74 337 321.35 313.19C320.98 309.46 320.63 305.93 320.35 302.63C320.21 301.07 320.07 299.56 319.94 298.12C319.3 290.96 318.86 285.29 318.6 281.79C318.41 279.23 318.31 277.79 318.31 277.79H337.6L337.42 282.7L336.82 298.93L336.76 300.78L336.36 311.49L335.68 329.73C342.25 355.42 338.3 393.9 338.3 393.9Z" fill="#EBB376"/>
<path d="M381.57 392.53L376.32 393.53C365.8 367.24 355.92 333.53 349.49 310.04C348.49 306.4 347.58 303.04 346.76 299.9C346.76 299.74 346.69 299.59 346.64 299.44C345.02 293.3 343.78 288.44 343 285.3L342.07 281.54L361.07 278.26L362.14 286.26L363.75 298L364.06 300.3L365.14 308.3L368 329.76C378.92 353.94 381.57 392.53 381.57 392.53Z" fill="#EBB376"/>
<path opacity="0.2" d="M363.75 298L346.75 299.9C346.75 299.74 346.68 299.59 346.63 299.44C345.01 293.3 343.77 288.44 342.99 285.3L362.15 286.25L363.75 298Z" fill="black"/>
<path opacity="0.2" d="M337.37 282.71L336.77 298.94L336.71 300.79L320.3 302.61C320.16 301.05 320.02 299.54 319.89 298.1C319.25 290.94 318.81 285.27 318.55 281.77L337.37 282.71Z" fill="black"/>
<path d="M322.53 411.61C323.526 410.81 324.657 410.194 325.87 409.79V409.79C325.87 409.79 329.51 406.19 331.26 395.33L336.02 394.09C336.826 393.895 337.673 393.953 338.446 394.255C339.219 394.558 339.88 395.09 340.34 395.78C340.479 395.971 340.583 396.184 340.65 396.41C340.89 397.572 341.06 398.748 341.16 399.93C341.419 403.899 341.439 407.879 341.22 411.85H340.36L340.02 404.37C339.9 401.83 337.95 404.81 337.39 407.55C336.83 410.29 335.66 413.19 330.09 413.33C323.59 413.46 320.89 413.2 322.53 411.61Z" fill="#F5C23C"/>
<path d="M340.51 395.87C340.82 393.33 340.92 388.87 340.92 388.87L330.35 390.05C330.35 390.05 331.63 395.05 330.57 398.84C335.9 397.48 340.51 395.87 340.51 395.87Z" fill="#F5C23C"/>
<path d="M365.55 411.61C366.545 410.808 367.676 410.191 368.89 409.79V409.79C368.89 409.79 372.53 406.19 374.28 395.33L379.03 394.09C379.838 393.895 380.686 393.952 381.461 394.254C382.235 394.556 382.898 395.089 383.36 395.78C383.496 395.971 383.598 396.184 383.66 396.41C383.91 397.57 384.08 398.746 384.17 399.93C384.65 403.61 384.24 411.85 384.24 411.85H383.38L383.04 404.37C382.91 401.83 380.97 404.81 380.41 407.55C379.85 410.29 378.67 413.19 373.1 413.33C366.61 413.46 363.91 413.2 365.55 411.61Z" fill="#F5C23C"/>
<path d="M383.53 395.87C383.84 393.33 383.94 388.87 383.94 388.87L373.37 390.05C373.37 390.05 374.65 395.05 373.59 398.84C378.92 397.48 383.53 395.87 383.53 395.87Z" fill="#F5C23C"/>
<path d="M352.33 168.93C352.253 168.998 352.169 169.058 352.08 169.11C350.865 170.039 349.478 170.719 348 171.11C343.68 172.11 340.73 171.52 338.8 169.56C336.11 166.63 335.43 161.44 335.8 155.17C335.868 152.676 336.33 150.209 337.17 147.86C337.17 147.86 337.17 147.77 337.17 147.75C337.17 147.73 337.24 147.56 337.28 147.48C337.81 146.156 338.662 144.985 339.758 144.074C340.855 143.162 342.162 142.539 343.56 142.26C344.775 141.993 346.016 141.856 347.26 141.85C359.5 141.72 361.69 162 352.33 168.93Z" fill="#EBB376"/>
<path opacity="0.2" d="M352.08 169.11C350.855 169.985 349.468 170.607 348 170.94C343.68 171.94 340.73 171.2 338.8 169.22C341.384 169.86 344.106 169.635 346.55 168.58C348.3 167.78 350.24 168.19 352.08 169.11Z" fill="black"/>
<path d="M353.32 180.14C354.07 183.62 349.57 185.04 349.57 185.04C342.2 181.89 340.84 177.97 340.84 177.97C346.98 174.77 345.2 165.7 345.2 165.7L346.45 166.32L355.23 168.03C355.23 168.03 352.79 172.71 352.47 173.77C350.81 179.37 353.32 180.14 353.32 180.14Z" fill="#EBB376"/>
<path d="M337.17 147.78C337.17 147.78 336.49 156.34 344.61 160.02C344.61 160.02 348.09 168.92 353.23 169.02C360.23 169.2 366.38 159.24 363.96 149.11C360.82 136 340.9 134.91 337.17 147.78Z" fill="#263238"/>
<path d="M340.5 157.56C340.5 156.23 341.58 153.98 343.65 154.29C345.72 154.6 346.99 159.9 341.71 161.08C341 161.25 340.49 160.35 340.5 157.56Z" fill="#EBB376"/>
<path d="M352.08 138.68C352.08 138.68 343.91 136.61 339.39 139.89C334.12 143.73 332.12 147.7 338.39 153.89C338.39 153.89 352.11 149.44 356.67 150.39C359.338 150.93 361.957 151.689 364.5 152.66C365.43 143.57 356.64 136.82 352.08 138.68Z" fill="#263238"/>
<path d="M340.84 139.07C341.35 137.85 342.39 135.2 345.48 136.66C348.57 138.12 350.84 134.95 352.82 135.48C354.8 136.01 356.82 138.22 358.13 138.03C358.785 137.924 359.456 137.96 360.096 138.135C360.736 138.311 361.331 138.623 361.841 139.048C362.35 139.474 362.762 140.005 363.048 140.604C363.334 141.203 363.488 141.856 363.5 142.52C363.74 146.79 367.5 146.95 367.85 149.45C368.2 151.95 366.53 153.01 367.85 155.39C369.17 157.77 371.15 157.72 369.57 161.1C367.99 164.48 366.14 165.37 368.12 168.16C370.1 170.95 368.64 173.59 365.74 174.77C365.74 174.77 361.92 170.95 360.07 172.53C358.22 174.11 354.23 176.2 352.47 173.77C352.168 173.32 351.763 172.947 351.288 172.685C350.814 172.422 350.283 172.275 349.741 172.258C349.199 172.24 348.66 172.352 348.17 172.583C347.679 172.815 347.251 173.16 346.92 173.59C346.23 174.9 342.92 172.53 340.84 172.53C338.76 172.53 337.65 174.88 337.65 174.88C337.65 174.88 334.83 174.11 335.7 169.77C336.57 165.43 338.5 153.28 337.15 149.85C335.8 146.42 340.84 139.07 340.84 139.07Z" fill="#263238"/>
<path d="M328.87 179.3C328.87 179.3 338.62 176.02 353.32 180.02C368.02 184.02 366.53 189.15 366.53 189.15C366.53 189.15 355.43 209.05 353.97 231.6L322.41 228.53C322.41 228.53 318.93 192.84 328.87 179.3Z" fill="#263238"/>
<path d="M321.19 230.57L321.82 224.36L355.23 227.71L354.53 232.58C367.11 254.86 364.07 280.26 364.07 280.26L365.59 292.76C365.59 292.76 362.44 294.71 341.27 296.09C322.66 297.31 317.93 295.38 317.93 295.38C311.33 256.72 317 238.32 321.19 230.57Z" fill="#F5C23C"/>
<path opacity="0.6" d="M365.58 292.76C365.58 292.76 362.43 294.71 341.26 296.09C322.65 297.31 317.92 295.38 317.92 295.38C317.7 294.1 317.5 292.85 317.31 291.62C313.31 265.88 314.92 249.62 317.66 239.69C318.485 236.525 319.669 233.465 321.19 230.57L321.42 228.33L321.82 224.33L355.23 227.68L354.53 232.55C367.11 254.83 364.07 280.23 364.07 280.23L365.27 290.13L365.58 292.76Z" fill="white"/>
<path d="M335.64 231L320.61 229.81L320.81 225.26L335.98 226.85L335.64 231Z" fill="#263238"/>
<path d="M350.69 232.19L336.72 231.09L337.06 226.96L350.99 228.42L350.69 232.19Z" fill="#263238"/>
<path d="M352.07 228.53L355.62 228.91L355.17 232.55L351.77 232.28L352.07 228.53Z" fill="#263238"/>
<path opacity="0.3" d="M344 251.29C343.93 253.8 343.84 255.7 343.84 255.7L337.35 261L326.28 256.1C326.475 254.364 326.568 252.617 326.56 250.87C326.61 247.12 326.46 242.79 326.36 240.44C326.31 239.37 326.28 238.71 326.28 238.71L343.84 240.8C343.89 241.17 343.93 241.61 343.96 242.09C344.16 244.59 344.11 248.35 344 251.29Z" fill="white"/>
<path opacity="0.3" d="M361 255.57L356.78 260.42L350.45 256.36C350.442 254.826 350.352 253.294 350.18 251.77C349.836 248.562 349.325 245.375 348.65 242.22C348.46 241.33 348.34 240.8 348.34 240.8H357.7C357.79 241.07 357.89 241.34 357.97 241.62C358.923 244.614 359.682 247.668 360.24 250.76C360.74 253.58 361 255.57 361 255.57Z" fill="white"/>
<path opacity="0.15" d="M344 251.29C343.93 253.8 343.84 255.7 343.84 255.7L337.35 261L326.28 256.1C326.475 254.364 326.568 252.617 326.56 250.87C330.531 251.525 334.132 253.592 336.7 256.69C337.458 255.318 338.502 254.126 339.762 253.194C341.021 252.263 342.467 251.613 344 251.29V251.29Z" fill="black"/>
<path opacity="0.15" d="M326.38 240.44C326.33 239.37 326.3 238.71 326.3 238.71L343.86 240.8C343.91 241.17 343.95 241.61 343.98 242.09L326.38 240.44Z" fill="black"/>
<path opacity="0.15" d="M358 241.62L348.68 242.22C348.49 241.33 348.37 240.8 348.37 240.8H357.73C357.77 241.07 357.87 241.34 358 241.62Z" fill="black"/>
<path opacity="0.15" d="M361 255.57L356.78 260.42L350.45 256.36C350.442 254.826 350.352 253.294 350.18 251.77C351.635 252.233 352.976 252.998 354.114 254.017C355.252 255.036 356.16 256.284 356.78 257.68C356.78 257.68 356.88 253.05 360.24 250.76C360.74 253.58 361 255.57 361 255.57Z" fill="black"/>
<path opacity="0.15" d="M365.58 292.76C365.58 292.76 362.43 294.71 341.26 296.09C322.65 297.31 317.92 295.38 317.92 295.38C317.7 294.1 317.5 292.85 317.31 291.62L319.25 291.71C318.31 283.8 315.57 256.87 319.7 242.09C318.977 241.339 318.309 240.537 317.7 239.69C318.525 236.525 319.709 233.465 321.23 230.57L321.46 228.33C322.133 228.382 322.801 228.482 323.46 228.63V229.63C323.46 229.63 318.55 247.14 318.55 264.48C318.528 273.633 319.22 282.774 320.62 291.82C335.519 292.353 350.438 291.815 365.26 290.21L365.58 292.76Z" fill="black"/>
<g opacity="0.3">
<path opacity="0.3" d="M335.64 231L320.61 229.81L320.81 225.26L335.98 226.85L335.64 231Z" fill="white"/>
<path opacity="0.3" d="M350.69 232.19L336.72 231.09L337.06 226.96L350.99 228.42L350.69 232.19Z" fill="white"/>
<path opacity="0.3" d="M352.07 228.53L355.62 228.91L355.17 232.55L351.77 232.28L352.07 228.53Z" fill="white"/>
</g>
<path d="M298.88 191.6L297.14 194.12C297.14 194.12 306.63 208.76 313.62 207.44C320.61 206.12 330.1 192.01 331.42 187.79C332.74 183.57 334.09 178.59 328.87 179.3C323.65 180.01 317.18 198.62 312.56 200.71C307.94 202.8 298.88 191.6 298.88 191.6Z" fill="#EBB376"/>
<path d="M113.59 146.94C113.59 146.94 129.35 147.09 133.84 149.31C138.33 151.53 124.25 166.54 119.69 163.95C115.13 161.36 109.19 153.2 113.59 146.94Z" fill="#F5C23C"/>
<path opacity="0.2" d="M113.59 146.94C113.59 146.94 129.35 147.09 133.84 149.31C138.33 151.53 124.25 166.54 119.69 163.95C115.13 161.36 109.19 153.2 113.59 146.94Z" fill="black"/>
<path d="M113.51 403.86H103.38C103.215 403.861 103.054 403.917 102.925 404.021C102.796 404.124 102.706 404.269 102.67 404.43L101 411.86C100.967 412.022 100.967 412.189 100.999 412.35C101.032 412.512 101.097 412.666 101.19 412.802C101.283 412.939 101.403 413.055 101.542 413.144C101.682 413.233 101.837 413.293 102 413.32H102.27C105.55 413.26 107.94 413.06 112.06 413.06C114.59 413.06 122.25 413.33 125.75 413.33C129.25 413.33 129.75 409.87 128.27 409.55C121.84 408.15 117 406.21 114.94 404.36C114.547 404.012 114.034 403.833 113.51 403.86Z" fill="#F5C23C"/>
<path d="M156.5 403.59H146.36C146.194 403.593 146.033 403.652 145.904 403.757C145.776 403.862 145.686 404.008 145.65 404.17L144 411.6C143.935 411.919 143.998 412.252 144.175 412.525C144.353 412.798 144.632 412.99 144.95 413.06H145.23C148.5 413.01 150.89 412.81 155.01 412.81C157.55 412.81 165.2 413.07 168.7 413.07C172.2 413.07 172.7 409.61 171.23 409.29C164.8 407.89 159.96 405.95 157.9 404.1C157.516 403.756 157.015 403.573 156.5 403.59V403.59Z" fill="#F5C23C"/>
<path d="M108.14 216H152.42C156.63 239 169.81 332.35 160.35 404.84H145.35C145.35 404.84 146.74 294.75 133.51 259.17C131.98 278.17 116.51 404.77 116.51 404.77H101.26C101.26 404.77 103.54 357.16 105.82 312.19C107.26 283.85 108.08 221.8 108.14 216Z" fill="#263238"/>
<path opacity="0.2" d="M133.52 259.16C135.699 265.395 137.354 271.8 138.47 278.31C139.7 261.37 134.75 243.4 134.75 243.4L133.52 259.16Z" fill="black"/>
<path d="M100.18 152.42C114.539 150.937 129.016 151.008 143.36 152.63C143.36 152.63 150.73 186.38 151.47 218.63H106.89C106.89 218.63 106.85 173.1 100.18 152.42Z" fill="#F5C23C"/>
<path opacity="0.6" d="M100.18 152.42C114.539 150.937 129.016 151.008 143.36 152.63C143.36 152.63 150.73 186.38 151.47 218.63H106.89C106.89 218.63 106.85 173.1 100.18 152.42Z" fill="white"/>
<path d="M115.86 153.31C119.69 156.79 129.07 155.51 129.07 155.51C129.07 155.51 134.93 153.9 133.7 152.07C130.25 151.5 128.58 149.89 127.89 147.83C127.512 146.553 127.393 145.214 127.54 143.89C127.597 143.152 127.694 142.418 127.83 141.69L116.23 133.1C117.75 138.77 119.61 149.2 115.86 153.31Z" fill="#E4897B"/>
<path opacity="0.2" d="M118.91 138.56C119.37 145.56 125.09 147.44 127.91 147.83C127.532 146.553 127.413 145.214 127.56 143.89L118.91 138.56Z" fill="black"/>
<path d="M140 117C140 117 141.73 128.17 135.81 132.48C129.89 136.79 129.81 116 129.81 116L140 117Z" fill="#263238"/>
<path d="M118.63 141.41C119.882 143.243 121.699 144.616 123.805 145.318C125.911 146.021 128.188 146.014 130.29 145.3C133.027 144.428 135.327 142.543 136.72 140.03C136.915 139.682 137.091 139.325 137.25 138.96C140.15 132.12 141.04 120.17 133.81 115.72C131.339 114.182 128.36 113.686 125.524 114.34C122.688 114.994 120.227 116.745 118.68 119.21C117.756 120.67 117.194 122.329 117.04 124.05C116.18 132 115.3 136.69 118.63 141.41Z" fill="#E4897B"/>
<path d="M128.69 128.28C128.54 128.91 128.83 129.51 129.26 129.58C129.69 129.65 130.11 129.18 130.26 128.53C130.41 127.88 130.11 127.31 129.69 127.24C129.27 127.17 128.81 127.63 128.69 128.28Z" fill="#263238"/>
<path d="M136 129.51C135.85 130.14 136.15 130.73 136.57 130.8C136.99 130.87 137.42 130.4 137.57 129.8C137.72 129.2 137.42 128.57 137 128.5C136.58 128.43 136.09 128.89 136 129.51Z" fill="#263238"/>
<path d="M133.61 129.43C134.053 131.519 134.78 133.538 135.77 135.43C135.273 135.672 134.729 135.802 134.177 135.812C133.624 135.823 133.076 135.713 132.57 135.49L133.61 129.43Z" fill="#DE5753"/>
<path d="M139.21 126.84C139.143 126.864 139.071 126.87 139.001 126.858C138.931 126.846 138.865 126.815 138.81 126.77C138.457 126.443 138.033 126.203 137.571 126.069C137.109 125.935 136.623 125.912 136.15 126C136.052 126.022 135.949 126.007 135.862 125.957C135.775 125.907 135.71 125.826 135.68 125.73C135.666 125.681 135.663 125.631 135.669 125.581C135.675 125.53 135.691 125.482 135.716 125.438C135.742 125.395 135.775 125.356 135.815 125.326C135.855 125.295 135.901 125.273 135.95 125.26V125.26C136.545 125.136 137.161 125.155 137.748 125.317C138.334 125.479 138.873 125.778 139.32 126.19C139.397 126.256 139.445 126.349 139.454 126.45C139.464 126.551 139.433 126.651 139.37 126.73V126.73C139.325 126.777 139.27 126.814 139.21 126.84V126.84Z" fill="#263238"/>
<path d="M127.74 125.13C127.665 125.112 127.596 125.074 127.54 125.02C127.487 124.934 127.47 124.83 127.493 124.731C127.515 124.632 127.575 124.545 127.66 124.49V124.49C128.176 124.161 128.763 123.961 129.373 123.909C129.983 123.857 130.596 123.953 131.16 124.19C131.248 124.237 131.315 124.316 131.347 124.411C131.379 124.506 131.373 124.61 131.33 124.7V124.7C131.283 124.788 131.204 124.856 131.11 124.889C131.016 124.923 130.912 124.919 130.82 124.88C130.371 124.707 129.887 124.641 129.408 124.688C128.929 124.735 128.467 124.893 128.06 125.15C127.955 125.186 127.84 125.179 127.74 125.13V125.13Z" fill="#263238"/>
<path d="M124.51 115.15V118.71C123.881 118.924 123.355 119.366 123.039 119.95C122.722 120.534 122.636 121.216 122.8 121.86C123.58 124.95 121.36 129.33 118.87 130.86C118.87 130.86 118.96 129.57 117.87 129.75C116.78 129.93 116.26 136.63 117.99 140.06C117.99 140.06 115.14 136.8 114.17 129.59C113.28 122.91 113.71 117.49 115.34 115.14L124.51 115.15Z" fill="#263238"/>
<path d="M112.49 130C112.776 130.96 113.248 131.854 113.879 132.631C114.511 133.409 115.289 134.054 116.17 134.53C118.54 135.79 120.3 133.81 120.17 131.28C120 129.03 118.59 125.59 115.97 125.4C113.35 125.21 111.81 127.58 112.49 130Z" fill="#E4897B"/>
<path d="M131.74 137.49C131.18 138.34 130.682 139.229 130.25 140.15C130.074 140.109 129.901 140.059 129.73 140C127.39 139.32 126.54 138.23 126.29 137.23C126.168 136.741 126.168 136.229 126.29 135.74C126.351 135.463 126.452 135.197 126.59 134.95C127.848 136.011 129.317 136.791 130.9 137.24C131.42 137.41 131.74 137.49 131.74 137.49Z" fill="#263238"/>
<path d="M130.94 137.24L130.48 138.02C128.28 137.36 126.82 136.61 126.33 135.74C126.391 135.463 126.492 135.197 126.63 134.95C127.888 136.011 129.357 136.791 130.94 137.24V137.24Z" fill="white"/>
<path d="M129.73 140C127.39 139.32 126.54 138.23 126.29 137.23C127.175 137.506 128.005 137.936 128.74 138.5C129.218 138.884 129.565 139.409 129.73 140V140Z" fill="#DE5753"/>
<path d="M124.52 118.71C124.52 118.71 142.29 124.78 140.24 112.8C140.24 112.8 130.66 107.14 122.24 108.73C113.82 110.32 114.54 118.97 114.54 118.97L124.52 118.71Z" fill="#263238"/>
<path d="M113.54 149.9C113.54 149.9 114.73 190.67 105.81 229.14L100.18 224.3C100.18 224.3 102.88 175.8 100.18 152.42L113.54 149.9Z" fill="#F5C23C"/>
<path d="M133.84 150.56C133.84 150.56 145.46 169.89 150.62 227.84L155.18 225.59C155.18 225.59 149.98 170.06 143.36 152.59L133.84 150.56Z" fill="#F5C23C"/>
<path opacity="0.2" d="M105.81 229.14L100.18 224.3C100.18 224.3 101.34 203.46 101.38 182.52C101.38 178.72 101.38 174.91 101.27 171.23C101.12 164.23 100.79 157.69 100.18 152.42L113.54 149.9C113.54 149.9 114.73 190.67 105.81 229.14Z" fill="white"/>
<path opacity="0.2" d="M133.84 150.56C133.84 150.56 145.46 169.89 150.62 227.84L155.18 225.59C155.18 225.59 149.98 170.06 143.36 152.59L133.84 150.56Z" fill="white"/>
<path d="M113.59 146.94C113.59 146.94 114.59 150.33 116.71 151.76L113.55 160V155.45L112.65 157.45L108.71 150.85L113.59 146.94Z" fill="#F5C23C"/>
<path d="M130.73 148.36C130.73 148.36 134.32 149.42 137.27 158.36V154.7L140.41 156.25C140.41 156.25 135.89 150.19 134.78 149.46C133.496 148.883 132.129 148.512 130.73 148.36V148.36Z" fill="#F5C23C"/>
<path d="M137.77 176.88C137.777 176.976 137.765 177.072 137.734 177.163C137.704 177.255 137.655 177.339 137.592 177.411C137.529 177.484 137.452 177.543 137.366 177.586C137.28 177.628 137.186 177.654 137.09 177.66L117.74 178.82C117.646 178.825 117.552 178.812 117.463 178.781C117.374 178.749 117.292 178.7 117.223 178.637C117.153 178.574 117.096 178.497 117.056 178.412C117.016 178.327 116.994 178.234 116.99 178.14L116.59 171.27L116.19 164.43C116.185 164.334 116.199 164.237 116.231 164.147C116.264 164.056 116.314 163.973 116.379 163.902C116.445 163.831 116.523 163.774 116.611 163.734C116.699 163.694 116.794 163.673 116.89 163.67L135.96 163.15C136.143 163.144 136.322 163.21 136.458 163.333C136.594 163.456 136.677 163.627 136.69 163.81L137.24 170.45L137.77 176.88Z" fill="#F5C23C"/>
<path opacity="0.4" d="M137.77 176.88C137.777 176.976 137.765 177.072 137.734 177.163C137.704 177.255 137.655 177.339 137.592 177.411C137.529 177.484 137.452 177.543 137.366 177.586C137.28 177.628 137.186 177.654 137.09 177.66L117.74 178.82C117.646 178.825 117.552 178.812 117.463 178.781C117.374 178.749 117.292 178.7 117.223 178.637C117.153 178.574 117.096 178.497 117.056 178.412C117.016 178.327 116.994 178.234 116.99 178.14L116.59 171.27L116.19 164.43C116.185 164.334 116.199 164.237 116.231 164.147C116.264 164.056 116.314 163.973 116.379 163.902C116.445 163.831 116.523 163.774 116.611 163.734C116.699 163.694 116.794 163.673 116.89 163.67L135.96 163.15C136.143 163.144 136.322 163.21 136.458 163.333C136.594 163.456 136.677 163.627 136.69 163.81L137.24 170.45L137.77 176.88Z" fill="white"/>
<path opacity="0.2" d="M137.77 176.88C137.777 176.976 137.765 177.072 137.734 177.163C137.704 177.255 137.655 177.339 137.592 177.411C137.529 177.484 137.452 177.543 137.366 177.586C137.28 177.628 137.186 177.654 137.09 177.66L117.74 178.82C117.646 178.825 117.552 178.812 117.463 178.781C117.374 178.749 117.292 178.7 117.223 178.637C117.153 178.574 117.096 178.497 117.056 178.412C117.016 178.327 116.994 178.234 116.99 178.14L116.59 171.27C117.84 168.67 119.51 165.77 120.67 165.81C122.78 165.88 121.78 172.5 122.86 173.4C123.94 174.3 127.16 168.11 127.52 168.71C127.88 169.31 127.79 171.42 127.95 171.94C128.07 172.31 133.95 171.14 137.24 170.45L137.77 176.88Z" fill="black"/>
<path opacity="0.3" d="M101.38 182.52C101.38 178.72 101.38 174.91 101.27 171.23C102.01 169.61 102.52 168.55 102.52 168.55C103.304 170.831 103.607 173.25 103.411 175.654C103.214 178.058 102.523 180.396 101.38 182.52V182.52Z" fill="black"/>
<path d="M93.18 164.78C93.18 164.78 82.45 190.24 80.35 190C78.25 189.76 75.79 183.55 75.79 183.55L70.69 186C70.69 186 74.52 195.75 80.35 198.39C86.18 201.03 98.27 175.84 98.27 175.84L93.18 164.78Z" fill="#F5C23C"/>
<path opacity="0.6" d="M93.18 164.78C93.18 164.78 82.45 190.24 80.35 190C78.25 189.76 75.79 183.55 75.79 183.55L70.69 186C70.69 186 74.52 195.75 80.35 198.39C86.18 201.03 98.27 175.84 98.27 175.84L93.18 164.78Z" fill="white"/>
<path d="M100.18 152.42C97.5 153.63 84.48 177.73 84.48 177.73L95.61 185.59L101.05 177.73C101.05 177.73 102.35 177.11 102.35 168.6C102.288 163.139 101.559 157.705 100.18 152.42V152.42Z" fill="#F5C23C"/>
<path d="M209.261 262.011L209.388 261.831C209.609 261.52 209.536 261.09 209.225 260.869L204.699 257.657C204.388 257.437 203.957 257.51 203.737 257.821L203.609 258C203.389 258.311 203.462 258.742 203.773 258.962L208.299 262.174C208.61 262.395 209.04 262.321 209.261 262.011Z" fill="#263238"/>
<path d="M71.9553 157.865L65.6936 166.69L59.5608 162.338C58.6481 161.69 58.03 160.706 57.8426 159.603C57.6552 158.499 57.9137 157.367 58.5614 156.454L59.9388 154.513C60.5865 153.6 61.5702 152.982 62.6737 152.795C63.7771 152.607 64.9097 152.866 65.8225 153.514L71.9553 157.865Z" fill="#263238"/>
<path d="M186.6 261.16L206.69 261.43L207.94 259.67L201 240.79C194.909 239.606 189.136 237.149 184.06 233.58L70.13 154C69.8389 153.797 69.4793 153.716 69.1293 153.776C68.7793 153.836 68.467 154.031 68.26 154.32L61.14 164.32C61.0375 164.463 60.9642 164.625 60.9244 164.797C60.8845 164.968 60.8788 165.146 60.9076 165.319C60.9364 165.493 60.9991 165.659 61.0922 165.809C61.1852 165.958 61.3068 166.088 61.45 166.19L174.18 247.48C179.23 251.093 183.463 255.731 186.6 261.09V261.16Z" fill="#263238"/>
<path opacity="0.3" d="M186.59 261.16C183.464 255.796 179.238 251.154 174.19 247.54L147 227.94L146.06 227.26L145.13 226.59L70.2 172.59L69.27 171.91L68.33 171.24L61.44 166.24C61.2979 166.138 61.1774 166.009 61.0854 165.86C60.9934 165.711 60.9317 165.545 60.9039 165.372C60.876 165.2 60.8825 165.023 60.923 164.853C60.9636 164.682 61.0373 164.522 61.14 164.38L68.26 154.38C68.4636 154.091 68.7735 153.893 69.122 153.832C69.4704 153.77 69.8292 153.848 70.12 154.05L77.12 158.91L78.12 159.58L79.07 160.24L154.8 213.1L156.7 214.42L184.17 233.6C186.737 235.393 189.481 236.918 192.36 238.15C195.175 239.353 198.112 240.249 201.12 240.82L201.43 241.65L201.91 242.97L208.02 259.69L206.77 261.45L188.96 261.22H187.55L186.59 261.16Z" fill="white"/>
<path d="M183.807 244.17L184.079 243.787C184.564 243.102 184.403 242.153 183.719 241.667L159.962 224.81C159.278 224.324 158.329 224.485 157.843 225.17L157.571 225.553C157.085 226.237 157.246 227.186 157.931 227.672L181.687 244.53C182.372 245.016 183.321 244.855 183.807 244.17Z" fill="#263238"/>
<g opacity="0.2">
<path opacity="0.2" d="M187.47 261.17L201.35 241.62L201.83 242.94L188.88 261.19L187.47 261.17Z" fill="black"/>
</g>
<g opacity="0.2">
<path opacity="0.2" d="M156.62 214.4L154.72 213.08L145.13 226.59L146.07 227.27L147 227.95L156.62 214.4Z" fill="black"/>
</g>
<g opacity="0.2">
<path opacity="0.2" d="M79 160.21L78 159.55L77.06 158.88L68.3 171.22L69.3 171.89L70.23 172.57L79 160.21Z" fill="black"/>
</g>
<path d="M157.25 209.83L156.31 211.54C155.68 211.482 155.046 211.554 154.445 211.751C153.845 211.949 153.291 212.269 152.82 212.69C152.82 212.69 153.48 216.6 153.71 217.1C154.23 218.2 159.88 220.9 161.24 220.89C161.67 220.89 162.07 218.02 161.81 217.1C161.188 215.904 160.426 214.786 159.54 213.77L160.31 212.26L157.25 209.83Z" fill="#E4897B"/>
<path d="M145.84 161.41C145.84 161.41 163.15 173.9 168.11 187.55C171.83 197.81 160.7 213.84 160.7 213.84L156 210.37C156 210.37 163.82 195.27 161.82 188.96C159.82 182.65 150.27 176.39 150.27 176.39L145.84 161.41Z" fill="#F5C23C"/>
<path opacity="0.6" d="M145.84 161.41C145.84 161.41 163.15 173.9 168.11 187.55C171.83 197.81 160.7 213.84 160.7 213.84L156 210.37C156 210.37 163.82 195.27 161.82 188.96C159.82 182.65 150.27 176.39 150.27 176.39L145.84 161.41Z" fill="white"/>
<path d="M162.8 175L157.22 184.56L154.47 183.37L149.83 181.37L147.15 169.48L143.36 152.66C148 154.86 162.8 175 162.8 175Z" fill="#F5C23C"/>
<path d="M75.23 183.83L74.08 180.16C74.08 180.16 75.78 179.81 75.79 178.31C75.8 176.81 75.64 173.13 74.93 172.4C73.1783 171 71.3267 169.73 69.39 168.6C68.51 168.15 67.56 171.52 67.52 172.99C67.48 174.46 70.69 179.28 70.69 179.28L72 185.37L75.23 183.83Z" fill="#E4897B"/>
<path opacity="0.2" d="M154.47 183.35L149.83 181.35L147.15 169.46C150 172.57 154.3 178.07 154.47 183.35Z" fill="black"/>
</svg>
