<svg width="109" height="109" viewBox="0 0 109 109" fill="none" xmlns="http://www.w3.org/2000/svg">
<path d="M54.5 54.4944C62.8641 54.4944 69.6429 47.6689 69.6429 39.2472C69.6429 30.8255 62.8641 24 54.5 24C46.1359 24 39.3571 30.8255 39.3571 39.2472C39.3571 47.6689 46.1359 54.4944 54.5 54.4944ZM65.1 58.3062H63.1243C60.498 59.5212 57.5759 60.2121 54.5 60.2121C51.4241 60.2121 48.5138 59.5212 45.8757 58.3062H43.9C35.1219 58.3062 28 65.4771 28 74.3157V79.2711C28 82.4277 30.5435 84.9888 33.6786 84.9888H75.3214C78.4565 84.9888 81 82.4277 81 79.2711V74.3157C81 65.4771 73.8781 58.3062 65.1 58.3062Z" stroke="white" stroke-width="2"/>
<circle cx="54.5" cy="54.5" r="52.5" stroke="white" stroke-width="3" stroke-miterlimit="2.55039" stroke-dasharray="15 15"/>
</svg>
