<svg width="505" height="482" viewBox="0 0 505 482" fill="none" xmlns="http://www.w3.org/2000/svg">
<path fill-rule="evenodd" clip-rule="evenodd" d="M-101.031 169.078C-159.114 200.421 -159.184 283.848 -172.682 348.453C-184.699 405.972 -188.022 463.245 -174.436 520.414C-159.83 581.877 -143.738 649.254 -92.4368 686.123C-41.2554 722.906 28.5338 722.914 90.3715 710.723C144.811 699.991 176.739 646.403 227.109 623.129C296.987 590.84 413.848 621.637 439.917 549.209C465.68 477.633 354.918 429.01 321.593 360.627C295.365 306.804 316.563 227.596 266.896 194.159C217.112 160.643 151.521 209.9 91.6455 205.819C24.7779 201.26 -42.0474 137.25 -101.031 169.078Z" fill="#F5C23C"/>
</svg>
