<svg id="Camada_1" data-name="Camada 1" xmlns="http://www.w3.org/2000/svg" viewBox="0 0 600 600"><defs><style>.cls-1{fill:#2149bb;}.cls-2{fill:#fff;}.cls-3{fill:#f5c23c;}.cls-4{fill:#dfaf00;}.cls-5{fill:#f2f2f2;}</style></defs><title>logo2</title><rect class="cls-1" width="600" height="600" rx="81.33"/><path class="cls-2" d="M190.53,101.66,168.72,77.43a42.24,42.24,0,0,0-59.66-3.12L88.92,92.45A42.13,42.13,0,0,0,79,105.76v-1.7A43.06,43.06,0,0,1,122.06,61h25.47A43.07,43.07,0,0,1,190.53,101.66Z"/><path class="cls-3" d="M190.6,104.06V489.91A43.07,43.07,0,0,1,147.53,533H122.06A43.06,43.06,0,0,1,79,489.91V105.76a42.13,42.13,0,0,1,9.92-13.31l20.14-18.14a42.24,42.24,0,0,1,59.66,3.12l21.81,24.23C190.57,102.45,190.6,103.25,190.6,104.06Z"/><polygon class="cls-4" points="190.59 234.9 190.59 285.89 79 159.75 79 131.6 90.33 121.57 190.59 234.9"/><path class="cls-2" d="M492.49,500l-20.14,18.14c-1.66,1.62-13.38,12.63-30.48,10.8a38.2,38.2,0,0,1-23-11.36c-.62-.69-1.24-1.36-1.87-2q-9.3-10.16-18.6-20.3L190.6,268.46,85.8,152.11a41.93,41.93,0,0,1-6.8-10.2V105.76A62.56,62.56,0,0,1,96,79c12.46-11.43,26.31-14.38,34.19-16a82.35,82.35,0,0,1,25.6-1l19.45,9.22L398.43,328.41,424,357.9q35.81,41.24,71.59,82.48A42.24,42.24,0,0,1,492.49,500Z"/><path class="cls-5" d="M423,356.88V514.55h-7l-18.61-20.3V327.39Z"/><rect class="cls-3" x="409.69" y="62.02" width="111.6" height="471.98" rx="42.06"/></svg>